<svg width="31" height="31" viewBox="0 0 31 31" fill="none" xmlns="http://www.w3.org/2000/svg">
<circle cx="15.5" cy="15.5" r="15.5" fill="url(#paint0_linear)"/>
<path d="M24.482 12.292C24.4398 11.3356 24.2852 10.6781 24.0636 10.1084C23.8351 9.50359 23.4834 8.96213 23.0227 8.51201C22.5726 8.05489 22.0276 7.69969 21.4298 7.4747C20.8568 7.25315 20.2027 7.09848 19.2463 7.05632C18.2827 7.01058 17.9768 7 15.533 7C13.0892 7 12.7833 7.01058 11.8233 7.05274C10.8669 7.09491 10.2094 7.24971 9.63975 7.47113C9.03483 7.69969 8.49338 8.05132 8.04326 8.51201C7.58614 8.96213 7.23108 9.50716 7.00595 10.1049C6.7844 10.6781 6.62973 11.3321 6.58757 12.2885C6.54183 13.252 6.53125 13.5579 6.53125 16.0018C6.53125 18.4456 6.54183 18.7515 6.58399 19.7115C6.62616 20.6679 6.78096 21.3254 7.00252 21.8952C7.23108 22.4999 7.58614 23.0414 8.04326 23.4915C8.49338 23.9486 9.03841 24.3038 9.63618 24.5288C10.2094 24.7504 10.8633 24.905 11.8199 24.9472C12.7797 24.9895 13.0857 24.9999 15.5296 24.9999C17.9734 24.9999 18.2793 24.9895 19.2393 24.9472C20.1957 24.905 20.8532 24.7504 21.4228 24.5288C22.6325 24.0611 23.5889 23.1047 24.0566 21.8952C24.278 21.322 24.4328 20.6679 24.475 19.7115C24.5172 18.7515 24.5277 18.4456 24.5277 16.0018C24.5277 13.5579 24.5242 13.252 24.482 12.292ZM22.8611 19.6411C22.8223 20.5202 22.6747 20.9949 22.5516 21.3114C22.2491 22.0956 21.6268 22.7179 20.8426 23.0204C20.5262 23.1434 20.048 23.2911 19.1724 23.3297C18.223 23.372 17.9382 23.3824 15.5366 23.3824C13.1349 23.3824 12.8466 23.372 11.9006 23.3297C11.0215 23.2911 10.5468 23.1434 10.2304 23.0204C9.84015 22.8761 9.48495 22.6476 9.19664 22.3487C8.89775 22.0568 8.66919 21.7052 8.52497 21.315C8.4019 20.9985 8.25424 20.5202 8.21564 19.6447C8.17334 18.6953 8.1629 18.4104 8.1629 16.0088C8.1629 13.6071 8.17334 13.3188 8.21564 12.373C8.25424 11.4939 8.4019 11.0192 8.52497 10.7027C8.66919 10.3123 8.89775 9.95727 9.20021 9.66883C9.49195 9.36994 9.84359 9.14138 10.234 8.99729C10.5504 8.87422 11.0287 8.72656 11.9042 8.68783C12.8536 8.64566 13.1385 8.63508 15.54 8.63508C17.9452 8.63508 18.23 8.64566 19.1759 8.68783C20.055 8.72656 20.5297 8.87422 20.8462 8.99729C21.2364 9.14138 21.5916 9.36994 21.8799 9.66883C22.1788 9.96071 22.4074 10.3123 22.5516 10.7027C22.6747 11.0192 22.8223 11.4973 22.8611 12.373C22.9032 13.3224 22.9138 13.6071 22.9138 16.0088C22.9138 18.4104 22.9032 18.6917 22.8611 19.6411Z" fill="white"/>
<path d="M15.5322 11.3789C12.9794 11.3789 10.9082 13.45 10.9082 16.0029C10.9082 18.5558 12.9794 20.6268 15.5322 20.6268C18.085 20.6268 20.1561 18.5558 20.1561 16.0029C20.1561 13.45 18.085 11.3789 15.5322 11.3789ZM15.5322 19.0023C13.8761 19.0023 12.5327 17.6591 12.5327 16.0029C12.5327 14.3466 13.8761 13.0034 15.5322 13.0034C17.1884 13.0034 18.5316 14.3466 18.5316 16.0029C18.5316 17.6591 17.1884 19.0023 15.5322 19.0023Z" fill="white"/>
<path d="M21.4189 11.1967C21.4189 11.7928 20.9355 12.2762 20.3393 12.2762C19.7431 12.2762 19.2598 11.7928 19.2598 11.1967C19.2598 10.6004 19.7431 10.1172 20.3393 10.1172C20.9355 10.1172 21.4189 10.6004 21.4189 11.1967Z" fill="white"/>
<defs>
<linearGradient id="paint0_linear" x1="30" y1="3.375" x2="5.125" y2="29.625" gradientUnits="userSpaceOnUse">
<stop stop-color="#9D37BA"/>
<stop offset="0.166667" stop-color="#585BCC"/>
<stop offset="0.328125" stop-color="#C331A0"/>
<stop offset="0.53125" stop-color="#E55053"/>
<stop offset="1" stop-color="#FDBB56"/>
</linearGradient>
</defs>
</svg>
