<svg width="53" height="27" viewBox="0 0 53 27" fill="none" xmlns="http://www.w3.org/2000/svg">
<path d="M36.6895 13.209L38.0712 13.4058L38.7222 8.81982L40.8713 11.9829C40.9566 12.1082 41.0804 12.2023 41.2239 12.2511C41.3674 12.2999 41.5229 12.3006 41.6669 12.2533L45.1726 11.1064L43.5857 14.4361C43.5203 14.5729 43.5011 14.7272 43.5311 14.8757C43.561 15.0243 43.6386 15.1591 43.7519 15.2598L46.6133 17.7967L41.9817 17.8544L41.9998 19.2499L48.4373 19.1694C48.5782 19.1677 48.7153 19.1233 48.8305 19.0422C48.9457 18.9611 49.0337 18.847 49.0829 18.7149C49.1321 18.5829 49.1402 18.439 49.1061 18.3023C49.072 18.1656 48.9973 18.0424 48.8919 17.9488L45.0723 14.563L47.1364 10.2382C47.1952 10.1149 47.2164 9.97701 47.1976 9.8417C47.1788 9.70638 47.1206 9.57957 47.0304 9.47696C46.9403 9.37435 46.8219 9.30045 46.6902 9.26442C46.5584 9.22839 46.4189 9.2318 46.2891 9.27424L41.7353 10.7668L38.8671 6.54467C38.7879 6.42814 38.6753 6.33832 38.544 6.28699C38.4128 6.23566 38.2691 6.22524 38.1319 6.25708C37.9946 6.28893 37.8702 6.36156 37.775 6.46542C37.6797 6.56929 37.6182 6.69953 37.5983 6.83904L36.6895 13.209Z" fill="#AD7D45"/>
<path d="M36.043 3.3252L36.965 4.37414L35.9161 5.29622L34.994 4.24727L36.043 3.3252Z" fill="#AD7D45"/>
<path d="M41.8945 4.69141L42.8166 5.74036L41.7677 6.66243L40.8456 5.61348L41.8945 4.69141Z" fill="#AD7D45"/>
<path d="M45.3477 20.252L46.2697 21.3009L45.2208 22.223L44.2987 21.174L45.3477 20.252Z" fill="#AD7D45"/>
<path d="M36.7971 17.5682C36.6457 17.3107 36.3143 17.2244 36.0567 17.3758C35.799 17.5272 35.7129 17.8586 35.8643 18.1162C36.3018 18.861 36.533 19.7124 36.533 20.5784C36.533 23.2639 34.3482 25.4486 31.6628 25.4486C28.9774 25.4486 26.7926 23.2639 26.7926 20.5784C26.7926 19.8951 26.9355 19.2239 27.2098 18.6057L28.6471 19.9726C28.6071 20.1716 28.5868 20.3743 28.5868 20.5784C28.5868 22.2745 29.9667 23.6543 31.6627 23.6543C33.3588 23.6543 34.7387 22.2745 34.7387 20.5784C34.7387 18.8823 33.3588 17.5025 31.6627 17.5025C31.4061 17.5025 31.1531 17.5348 30.9066 17.5974L29.4694 16.2306C30.1462 15.8878 30.893 15.7082 31.6627 15.7082C32.819 15.7082 33.9404 16.1216 34.8205 16.8723C34.9223 16.9592 35.0472 17.0017 35.1712 17.0017C35.3241 17.0017 35.4761 16.9372 35.583 16.8118C35.7769 16.5845 35.7499 16.243 35.5225 16.0492C34.4468 15.1317 33.076 14.6264 31.6627 14.6264C30.5931 14.6264 29.559 14.9092 28.6462 15.4478L27.9807 14.8149C28.9668 14.254 30.1063 13.9331 31.3196 13.9331C31.6785 13.9331 32.0404 13.9618 32.3952 14.0184C32.5531 14.0436 32.7138 13.9977 32.8345 13.8931L34.5415 12.4149C34.8137 12.1792 35.02 11.8855 35.1474 11.5577C35.6034 10.3859 35.6257 8.1736 34.7562 7.18067C32.3716 4.45691 28.8329 3.1162 24.7925 3.4047C23.8003 3.47567 23.2282 4.57202 23.7392 5.43109L23.977 5.83073H22.8483C22.5495 5.83073 22.3073 6.07292 22.3073 6.37166C22.3073 6.67039 22.5495 6.91259 22.8483 6.91259H24.5921C24.8435 7.46498 24.9621 8.06505 24.9404 8.66895C23.8553 7.70386 22.4586 7.1661 20.9717 7.1661C19.0118 7.1661 17.2063 8.10717 16.0826 9.69765H12.1904C11.8843 9.69765 11.5843 9.59206 11.3457 9.40035L7.38781 6.22041C7.29174 6.14324 7.17223 6.10119 7.04904 6.10119H3.81292C2.91505 6.10119 2.18457 6.83166 2.18457 7.72953C2.18457 8.2525 2.43823 8.74691 2.86304 9.05214L4.02734 9.88834C4.26975 10.0625 4.60794 10.0072 4.78226 9.76451C4.95651 9.52188 4.90105 9.18391 4.65842 9.00959L3.4942 8.17338C3.35154 8.07097 3.26643 7.90501 3.26643 7.72946C3.26643 7.42813 3.51158 7.18298 3.81292 7.18298H6.85863L10.6683 10.2438C11.0983 10.5892 11.6389 10.7795 12.1905 10.7795H16.2848L19.7877 12.1184L21.7157 12.8554C21.6153 12.9074 20.3152 14.0469 18.2028 14.0469H17.0149C15.8254 14.0469 14.6961 14.6861 14.0896 15.7835L13.1956 15.1413C13.1955 15.1413 13.1954 15.1412 13.1952 15.1411L6.12513 10.063C5.88258 9.88878 5.54454 9.94417 5.37021 10.1868C5.19596 10.4294 5.25143 10.7675 5.49405 10.9417L11.9043 15.5459L10.7382 16.2632C9.6367 15.218 8.16703 14.6262 6.63967 14.6262C3.3576 14.6263 0.6875 17.2963 0.6875 20.5783C0.6875 23.8603 3.3576 26.5304 6.63959 26.5304C9.92159 26.5304 12.5916 23.8603 12.5916 20.5783C12.5916 20.0741 12.5271 19.5748 12.4012 19.0884L13.6816 18.3006V22.356C13.6816 23.9022 14.9394 25.1599 16.4854 25.1599H19.0917V25.4486H15.5626C15.2638 25.4486 15.0217 25.6907 15.0217 25.9895C15.0217 26.2883 15.2638 26.5304 15.5626 26.5304H19.6326C19.9314 26.5304 20.1736 26.2883 20.1736 25.9895V25.1599H25.1368C25.334 25.1599 25.5156 25.0525 25.6107 24.8797C25.7058 24.7069 25.6993 24.4959 25.5937 24.3293C24.9076 23.2472 24.5451 21.9949 24.5451 20.7077C24.5451 19.3728 24.9333 18.1271 25.6025 17.077L26.3872 17.8233C25.9438 18.6711 25.7107 19.6147 25.7107 20.5783C25.7107 23.8602 28.3808 26.5303 31.6628 26.5303C34.9448 26.5303 37.6149 23.8603 37.6149 20.5783C37.6149 19.5199 37.3321 18.4789 36.7971 17.5682ZM33.657 20.5783C33.657 21.6779 32.7624 22.5724 31.6629 22.5724C30.7021 22.5724 29.8979 21.8893 29.7102 20.9834L30.5334 21.7661C30.8394 22.0571 31.2405 22.2175 31.6627 22.2175C32.1098 22.2175 32.5427 22.0318 32.8508 21.7079C33.1525 21.3907 33.3126 20.9749 33.3016 20.5371C33.2906 20.0994 33.1098 19.6922 32.7924 19.3906L31.9693 18.6078C32.9239 18.7557 33.657 19.583 33.657 20.5783ZM34.1219 8.17266C34.5296 9.07003 34.4041 10.6049 34.1139 11.224C33.3841 11.1 32.8268 10.4632 32.8268 9.69873C32.8268 8.93213 33.3872 8.29404 34.1219 8.17266ZM20.9719 8.24803C22.4101 8.24803 23.746 8.86188 24.6799 9.94186C24.137 11.3504 23.0757 11.8363 22.7699 12.1001L18.2576 10.3754L17.2285 9.98203C18.1549 8.88575 19.5112 8.24803 20.9719 8.24803ZM13.7215 16.8512C13.7132 16.9033 13.705 16.9606 13.6984 17.0202L8.89036 19.9784C8.88863 19.9795 8.8869 19.9806 8.8851 19.9816L7.26606 20.9778C7.00295 21.1365 6.65964 21.0515 6.50104 20.7883C6.42142 20.6563 6.40014 20.5016 6.44096 20.3529C6.4789 20.2144 6.56754 20.0974 6.6947 20.0208L8.3917 18.9769C8.39321 18.9759 8.39473 18.975 8.39624 18.9741L10.9276 17.4171C10.9285 17.4165 10.9295 17.4158 10.9305 17.4153L12.8569 16.2303L13.7215 16.8512ZM5.57454 21.3469C5.88172 21.8562 6.42358 22.1386 6.98009 22.1386C7.26945 22.1386 7.56271 22.0622 7.82892 21.9017L8.36891 21.5695C8.02444 22.1682 7.37857 22.5725 6.63959 22.5725C5.54007 22.5725 4.64551 21.678 4.64551 20.5785C4.64551 19.4789 5.54007 18.5844 6.63959 18.5844C6.73754 18.5844 6.8344 18.5921 6.92982 18.606L6.13199 19.0968C5.77028 19.3148 5.50948 19.6592 5.39762 20.0665C5.27934 20.4973 5.34382 20.964 5.57454 21.3469ZM11.5098 20.5783C11.5098 23.2638 9.32505 25.4486 6.63967 25.4486C3.95413 25.4486 1.76936 23.2639 1.76936 20.5783C1.76936 17.8929 3.95413 15.7082 6.63959 15.7082C7.79163 15.7082 8.90277 16.1209 9.77575 16.8552L8.11272 17.8782C7.6626 17.6315 7.15982 17.5024 6.63959 17.5024C4.94346 17.5024 3.56365 18.8823 3.56365 20.5783C3.56365 22.2744 4.94353 23.6543 6.63959 23.6543C8.28027 23.6543 9.6248 22.3631 9.71099 20.7436L11.4267 19.688C11.4813 19.9811 11.5098 20.2786 11.5098 20.5783ZM24.2214 24.0781H16.4854C15.5359 24.0781 14.7635 23.3056 14.7635 22.3561V17.3802C14.7635 16.2554 15.5918 15.3328 16.6477 15.1593C17.6122 14.9985 19.7759 15.5764 22.1872 13.8487C23.8927 12.6265 25.4403 11.8463 25.9196 9.55455C26.1054 8.66635 26.0448 7.75643 25.7551 6.91273H26.3959C26.6947 6.91273 26.9368 6.67054 26.9368 6.3718C26.9368 6.07306 26.6947 5.83087 26.3959 5.83087H25.236L24.6692 4.87804C24.5715 4.71382 24.6768 4.49774 24.8698 4.48389C28.241 4.24292 31.2186 5.23066 33.3521 7.27652C32.4086 7.67602 31.745 8.61139 31.745 9.6988C31.745 10.7546 32.3709 11.6665 33.271 12.0843L32.3129 12.9139C31.9836 12.8723 31.6506 12.8513 31.3198 12.8513C26.9922 12.8513 23.4632 16.3661 23.4632 20.7079C23.4632 21.8814 23.7234 23.0302 24.2214 24.0781ZM27.0668 15.4386L28.2069 16.5229C28.2074 16.5233 28.2079 16.5238 28.2084 16.5242L32.0469 20.1746C32.1548 20.2771 32.2162 20.4156 32.22 20.5643C32.2237 20.7131 32.1693 20.8545 32.0667 20.9625C31.9604 21.0742 31.8169 21.1357 31.6626 21.1357C31.5191 21.1357 31.3828 21.0812 31.2787 20.9823L27.441 17.3327C27.4398 17.3315 27.4387 17.3304 27.4374 17.3294L26.2592 16.2089C26.507 15.9307 26.7771 15.673 27.0668 15.4386Z" fill="#AD7D45"/>
<path d="M19.1492 21.0586H17.5956C17.2968 21.0586 17.0547 21.3007 17.0547 21.5995C17.0547 21.8983 17.2968 22.1405 17.5956 22.1405H19.1492C19.448 22.1405 19.6902 21.8983 19.6902 21.5995C19.6902 21.3007 19.448 21.0586 19.1492 21.0586Z" fill="#AD7D45"/>
</svg>
