<svg width="42" height="28" viewBox="0 0 42 28" fill="none" xmlns="http://www.w3.org/2000/svg">
<path d="M11.7916 14.2171C11.8369 14.0857 11.8399 13.9434 11.8002 13.8102C11.7605 13.6769 11.6802 13.5595 11.5704 13.4742L9.25492 11.6751C6.74954 9.7322 3.67044 8.67529 0.5 8.66992V10.0026C3.37421 10.0071 6.16574 10.9649 8.43733 12.7259L9.21894 13.3342H0.5V14.6669H11.1613C11.3001 14.6669 11.4355 14.6236 11.5485 14.543C11.6615 14.4623 11.7465 14.3484 11.7916 14.2171Z" fill="#AD7D45"/>
<path d="M1.83203 15.999H4.49735V17.3317H1.83203V15.999Z" fill="#AD7D45"/>
<path d="M14.4951 20.6641C14.0997 20.6641 13.7132 20.7813 13.3845 21.001C13.0558 21.2206 12.7996 21.5328 12.6483 21.8981C12.497 22.2633 12.4574 22.6653 12.5345 23.053C12.6116 23.4408 12.802 23.797 13.0816 24.0766C13.3611 24.3561 13.7173 24.5465 14.1051 24.6236C14.4929 24.7008 14.8948 24.6612 15.2601 24.5099C15.6253 24.3586 15.9375 24.1024 16.1572 23.7736C16.3768 23.4449 16.4941 23.0584 16.4941 22.6631C16.4941 22.1329 16.2835 21.6244 15.9086 21.2496C15.5337 20.8747 15.0253 20.6641 14.4951 20.6641ZM14.4951 23.3294C14.3633 23.3294 14.2345 23.2903 14.1249 23.2171C14.0153 23.1439 13.9299 23.0398 13.8795 22.918C13.829 22.7963 13.8158 22.6623 13.8416 22.5331C13.8673 22.4038 13.9307 22.2851 14.0239 22.1919C14.1171 22.0987 14.2358 22.0352 14.3651 22.0095C14.4943 21.9838 14.6283 21.997 14.7501 22.0474C14.8718 22.0979 14.9759 22.1833 15.0491 22.2929C15.1223 22.4024 15.1614 22.5313 15.1614 22.6631C15.1614 22.8398 15.0912 23.0093 14.9663 23.1342C14.8413 23.2592 14.6718 23.3294 14.4951 23.3294Z" fill="#AD7D45"/>
<path d="M41.8125 6.00489H37.1482C36.2184 6.00389 35.3029 6.23292 34.4831 6.67157C33.6634 7.11023 32.9649 7.74487 32.4499 8.51895L30.0758 12.0798C29.715 12.6223 29.2357 13.0758 28.6742 13.4061C28.1127 13.7365 27.4835 13.935 26.8341 13.9869L25.7086 12.2984C25.6439 12.2012 25.5547 12.1227 25.4501 12.0709C25.3455 12.019 25.2291 11.9955 25.1125 12.0028C24.996 12.0101 24.8834 12.0479 24.786 12.1124C24.6887 12.1769 24.61 12.2658 24.5579 12.3703L23.563 14.3607L22.1924 13.4465C22.1072 13.3901 22.0102 13.354 21.9088 13.3411C21.8075 13.3282 21.7045 13.3388 21.6079 13.372C21.5113 13.4053 21.4236 13.4603 21.3517 13.5328C21.2797 13.6053 21.2254 13.6934 21.1929 13.7903L20.8677 14.7665L20.2973 14.1961C20.1724 14.0712 20.0029 14.001 19.8263 14.001C19.6496 14.001 19.4801 14.0712 19.3552 14.1961L18.7848 14.7665L18.4596 13.7903C18.4237 13.6825 18.3609 13.5857 18.277 13.509C18.1932 13.4324 18.0911 13.3784 17.9805 13.3523C17.87 13.3262 17.7546 13.3288 17.6453 13.3599C17.536 13.3909 17.4365 13.4494 17.3562 13.5298L16.4293 14.454L10.495 10.0029C7.60809 7.84673 4.10318 6.67842 0.5 6.67122V8.00388C3.81487 8.01084 7.03929 9.08565 9.69536 11.069L16.0921 15.8666C16.2205 15.9628 16.3792 16.0095 16.5391 15.9981C16.6991 15.9867 16.8496 15.918 16.963 15.8046L17.5334 15.2342L17.8586 16.2104C17.8945 16.3182 17.9573 16.415 18.0412 16.4917C18.125 16.5683 18.2271 16.6222 18.3377 16.6484C18.4482 16.6745 18.5636 16.6719 18.6729 16.6408C18.7822 16.6098 18.8817 16.5513 18.962 16.4709L19.8236 15.6094L20.4899 16.2757V19.3315C20.316 19.3315 20.1228 19.3315 19.9016 19.3315H17.7513C17.1368 18.7286 16.3672 18.3079 15.5279 18.1162C14.6887 17.9244 13.8127 17.9691 12.9973 18.2452C12.182 18.5214 11.4591 19.0182 10.9092 19.6805C10.3592 20.3428 10.0036 21.1446 9.88194 21.9968H0.5V23.3295H9.88194C10.0413 24.4388 10.5952 25.4536 11.4421 26.1875C12.289 26.9215 13.3722 27.3256 14.4929 27.3256C15.6137 27.3256 16.6968 26.9215 17.5438 26.1875C18.3907 25.4536 18.9446 24.4388 19.104 23.3295H19.8083C20.3078 23.328 20.7887 23.1395 21.1562 22.8011C21.5238 23.1395 22.0047 23.328 22.5042 23.3295H23.8749C24.0342 24.4388 24.5881 25.4536 25.4351 26.1875C26.282 26.9215 27.3652 27.3256 28.4859 27.3256C29.6066 27.3256 30.6898 26.9215 31.5367 26.1875C32.3836 25.4536 32.9376 24.4388 33.0969 23.3295H41.8125V21.9968H33.0969C33.0306 21.5348 32.8947 21.0855 32.6938 20.6642H41.8125V19.3315H31.7442C31.261 18.857 30.68 18.4937 30.0417 18.267C29.4035 18.0403 28.7235 17.9558 28.0492 18.0192C27.3749 18.0827 26.7226 18.2926 26.1378 18.6344C25.5531 18.9761 25.05 19.4415 24.6638 19.9978H21.8226V16.1085L22.1791 15.0423L23.4518 15.8912C23.5304 15.9437 23.6193 15.9789 23.7126 15.9944C23.8059 16.0099 23.9014 16.0054 23.9928 15.9811C24.0842 15.9568 24.1693 15.9134 24.2426 15.8537C24.3159 15.7939 24.3757 15.7193 24.4179 15.6347L25.2369 13.9962L25.9325 15.0403C25.9938 15.1309 26.0764 15.2051 26.1731 15.2562C26.2697 15.3073 26.3775 15.3339 26.4869 15.3335C27.4165 15.3345 28.332 15.1054 29.1516 14.6667C29.9712 14.2281 30.6696 13.5935 31.1845 12.8194L33.5587 9.25858C33.9522 8.66721 34.4858 8.18235 35.1121 7.84718C35.7384 7.51201 36.4379 7.33693 37.1482 7.33755H41.8125V6.00489ZM14.4929 25.9948C13.834 25.9948 13.1899 25.7994 12.642 25.4333C12.0941 25.0672 11.6671 24.5469 11.4149 23.9381C11.1627 23.3293 11.0968 22.6595 11.2253 22.0132C11.3539 21.3669 11.6712 20.7733 12.1371 20.3073C12.603 19.8414 13.1967 19.5241 13.843 19.3955C14.4892 19.267 15.1591 19.3329 15.7679 19.5851C16.3767 19.8373 16.897 20.2643 17.2631 20.8122C17.6292 21.3601 17.8246 22.0042 17.8246 22.6631C17.8235 23.5464 17.4722 24.3932 16.8476 25.0178C16.223 25.6424 15.3762 25.9937 14.4929 25.9948ZM19.8083 21.9968H19.104C19.0376 21.5348 18.9017 21.0855 18.7008 20.6642H20.4899V21.3152C20.4897 21.4959 20.4179 21.6692 20.2901 21.797C20.1623 21.9248 19.989 21.9966 19.8083 21.9968ZM28.4859 19.3315C29.1448 19.3315 29.789 19.5269 30.3369 19.893C30.8847 20.2591 31.3118 20.7794 31.5639 21.3882C31.8161 21.997 31.8821 22.6668 31.7535 23.3131C31.625 23.9594 31.3077 24.553 30.8417 25.019C30.3758 25.4849 29.7821 25.8022 29.1359 25.9308C28.4896 26.0593 27.8197 25.9934 27.2109 25.7412C26.6021 25.489 26.0818 25.062 25.7157 24.5141C25.3496 23.9662 25.1542 23.3221 25.1542 22.6631C25.1553 21.7799 25.5066 20.9331 26.1312 20.3085C26.7558 19.6839 27.6026 19.3326 28.4859 19.3315ZM23.8749 21.9968H22.5042C22.3265 21.9963 22.1561 21.9263 22.0293 21.8018C21.9026 21.6773 21.8296 21.5081 21.8259 21.3305H24.0215C23.9562 21.5487 23.9072 21.7714 23.8749 21.9968Z" fill="#AD7D45"/>
<path d="M37.8134 8.66994C37.0882 8.66763 36.3745 8.85096 35.7402 9.20251C35.106 9.55405 34.5723 10.0621 34.1899 10.6783L31.9177 14.3138C31.8546 14.4146 31.8198 14.5305 31.8166 14.6494C31.8135 14.7683 31.8423 14.8859 31.8999 14.9899C31.9576 15.094 32.0421 15.1807 32.1445 15.241C32.247 15.3014 32.3638 15.3333 32.4827 15.3333H40.4787C40.6554 15.3333 40.8249 15.2631 40.9499 15.1381C41.0748 15.0131 41.145 14.8436 41.145 14.6669V9.33627C41.145 9.15955 41.0748 8.99007 40.9499 8.86511C40.8249 8.74015 40.6554 8.66994 40.4787 8.66994H37.8134ZM39.8124 14.0006H33.6821L35.3173 11.3846C35.5805 10.9601 35.9482 10.6102 36.3852 10.3682C36.8222 10.1263 37.3139 10.0004 37.8134 10.0026H39.8124V14.0006Z" fill="#AD7D45"/>
<path d="M28.4873 24.662C28.8826 24.662 29.2691 24.5448 29.5979 24.3252C29.9266 24.1055 30.1828 23.7933 30.3341 23.428C30.4854 23.0628 30.525 22.6608 30.4479 22.2731C30.3707 21.8853 30.1803 21.5291 29.9008 21.2496C29.6212 20.97 29.265 20.7796 28.8773 20.7025C28.4895 20.6253 28.0876 20.6649 27.7223 20.8162C27.357 20.9675 27.0448 21.2237 26.8252 21.5525C26.6055 21.8812 26.4883 22.2677 26.4883 22.6631C26.4883 23.1932 26.6989 23.7017 27.0738 24.0766C27.4487 24.4514 27.9571 24.662 28.4873 24.662ZM28.4873 21.9967C28.6191 21.9967 28.7479 22.0358 28.8575 22.109C28.967 22.1822 29.0524 22.2863 29.1029 22.4081C29.1533 22.5298 29.1665 22.6638 29.1408 22.7931C29.1151 22.9223 29.0516 23.041 28.9584 23.1342C28.8653 23.2274 28.7465 23.2909 28.6173 23.3166C28.488 23.3423 28.354 23.3291 28.2323 23.2787C28.1105 23.2282 28.0065 23.1428 27.9332 23.0332C27.86 22.9237 27.8209 22.7948 27.8209 22.6631C27.8209 22.4863 27.8911 22.3169 28.0161 22.1919C28.1411 22.0669 28.3106 21.9967 28.4873 21.9967Z" fill="#AD7D45"/>
<path d="M17.3171 11.1021L18.3286 10.2359L15.452 6.88021L19.0728 7.33265C19.2164 7.35047 19.3618 7.3211 19.4872 7.24898C19.6126 7.17685 19.7111 7.06589 19.7678 6.93285L21.1545 3.69782L22.5411 6.93285C22.5979 7.06589 22.6964 7.17685 22.8217 7.24898C22.9471 7.3211 23.0925 7.35047 23.2361 7.33265L26.8569 6.88021L23.9804 10.2359L24.9919 11.1021L28.9898 6.43777C29.0773 6.33567 29.1319 6.20948 29.1463 6.07581C29.1608 5.94213 29.1345 5.8072 29.0708 5.68877C29.0071 5.57033 28.9092 5.47392 28.7897 5.41221C28.6702 5.35049 28.5349 5.32636 28.4015 5.34299L23.5686 5.94735L21.7695 1.74347C21.7181 1.62367 21.6327 1.52157 21.5238 1.44983C21.415 1.37808 21.2875 1.33984 21.1571 1.33984C21.0268 1.33984 20.8993 1.37808 20.7904 1.44983C20.6816 1.52157 20.5962 1.62367 20.5448 1.74347L18.7457 5.94735L13.9128 5.34299C13.7794 5.32636 13.644 5.35049 13.5246 5.41221C13.4051 5.47392 13.3071 5.57033 13.2435 5.68877C13.1798 5.8072 13.1535 5.94213 13.1679 6.07581C13.1824 6.20948 13.2369 6.33567 13.3244 6.43777L17.3171 11.1021Z" fill="#AD7D45"/>
<path d="M31.1497 2.00649V0.673828C30.4428 0.673828 29.7649 0.954638 29.265 1.45448C28.7652 1.95433 28.4844 2.63226 28.4844 3.33915H29.817C29.817 2.98571 29.9574 2.64674 30.2074 2.39682C30.4573 2.14689 30.7963 2.00649 31.1497 2.00649Z" fill="#AD7D45"/>
<path d="M9.82812 5.33789H11.1608V6.67055H9.82812V5.33789Z" fill="#AD7D45"/>
<path d="M14.4922 2.00684H15.8248V3.3395H14.4922V2.00684Z" fill="#AD7D45"/>
<path d="M7.16469 4.67216H8.49735C8.49735 3.96527 8.21654 3.28734 7.7167 2.78749C7.21685 2.28765 6.53892 2.00684 5.83203 2.00684V3.3395C6.18548 3.3395 6.52444 3.4799 6.77436 3.72982C7.02429 3.97975 7.16469 4.31871 7.16469 4.67216Z" fill="#AD7D45"/>
<path d="M27.8203 9.33594H29.153V10.6686H27.8203V9.33594Z" fill="#AD7D45"/>
<path d="M33.1523 3.33887H34.485V4.67153H33.1523V3.33887Z" fill="#AD7D45"/>
</svg>
