<svg width="62" height="53" viewBox="0 0 62 53" fill="none" xmlns="http://www.w3.org/2000/svg">
<path d="M27.4046 3.05327C23.8339 6.34928 20.5379 10.3319 17.5166 15.0013C14.6326 19.6706 13.1906 23.5846 13.1906 26.7433C13.1906 30.7259 15.6626 32.7173 20.6066 32.7173C23.0786 32.7173 24.7952 33.6099 25.7566 35.3953C26.7179 37.1806 27.1986 39.2406 27.1986 41.5753C27.1986 44.4593 25.9626 46.9999 23.4906 49.1973C21.1559 51.3946 18.4092 52.4933 15.2506 52.4933C10.4439 52.4933 6.80456 51.0513 4.33256 48.1673C1.99789 45.1459 0.830555 40.8886 0.830555 35.3953C0.830555 28.5286 3.16522 22.0739 7.83456 16.0313C12.5039 9.85127 17.7226 4.76994 23.4906 0.787276L27.4046 3.05327ZM61.6006 3.05327C58.0299 6.34928 54.7339 10.3319 51.7126 15.0013C48.8286 19.6706 47.3866 23.5846 47.3866 26.7433C47.3866 30.7259 49.8586 32.7173 54.8026 32.7173C57.2746 32.7173 58.9912 33.6099 59.9526 35.3953C60.9139 37.1806 61.3946 39.2406 61.3946 41.5753C61.3946 44.4593 60.1586 46.9999 57.6866 49.1973C55.3519 51.3946 52.6052 52.4933 49.4466 52.4933C44.6399 52.4933 41.0006 51.0513 38.5286 48.1673C36.1939 45.1459 35.0266 40.8886 35.0266 35.3953C35.0266 28.5286 37.3612 22.0739 42.0306 16.0313C46.6999 9.85127 51.9186 4.76994 57.6866 0.787276L61.6006 3.05327Z" fill="white"/>
</svg>
