<svg width="32" height="32" viewBox="0 0 32 32" fill="none" xmlns="http://www.w3.org/2000/svg">
<circle cx="16" cy="16" r="16" fill="#D31800"/>
<path d="M18.1246 7.79168H19.1065V11.7929C19.1065 12.0238 19.1065 12.1436 19.1184 12.1758C19.14 12.3284 19.2174 12.4064 19.3493 12.4064C19.5462 12.4064 19.7529 12.2539 19.9714 11.9455V7.79168H20.9561V13.2261H19.9714V12.6335C19.5793 13.083 19.2056 13.3009 18.8463 13.3009C18.5294 13.3009 18.3106 13.1723 18.2118 12.8973C18.1574 12.7326 18.1246 12.4727 18.1246 12.0892V7.79168ZM14.4054 9.56372C14.4054 8.9827 14.5042 8.5581 14.7136 8.2834C14.9859 7.91173 15.3694 7.72604 15.8602 7.72604C16.3534 7.72604 16.7366 7.91173 17.009 8.2834C17.2153 8.5578 17.3141 8.9827 17.3141 9.56372V11.4668C17.3141 12.0445 17.2153 12.473 17.009 12.7447C16.7366 13.1155 16.3534 13.3009 15.8602 13.3009C15.3694 13.3009 14.9859 13.1155 14.7136 12.7447C14.5042 12.473 14.4054 12.0442 14.4054 11.4668V9.56372ZM11.7721 5.93359L12.5474 8.7973L13.2922 5.93359H14.3966L13.0828 10.2728V13.2264H11.9912V10.2728C11.8921 9.74941 11.6736 8.9827 11.3232 7.96554C11.0932 7.28872 10.8534 6.60983 10.6233 5.93359H11.7721ZM24.297 23.2267C24.0995 24.0839 23.3984 24.7167 22.5542 24.811C20.5545 25.0343 18.5317 25.0354 16.5163 25.0343C14.5018 25.0354 12.4779 25.0343 10.4787 24.811C9.63457 24.7167 8.9332 24.0842 8.73627 23.2267C8.45508 22.0059 8.45508 20.6726 8.45508 19.4154C8.45508 18.1581 8.45863 16.8252 8.73953 15.604C8.93675 14.7465 9.63752 14.1137 10.4817 14.0197C12.4811 13.7965 14.5048 13.7953 16.5199 13.7965C18.5344 13.7953 20.5581 13.7965 22.5575 14.0197C23.4017 14.114 24.103 14.7465 24.3008 15.604C24.5812 16.8252 24.5794 18.1581 24.5794 19.4154C24.5794 20.6726 24.5782 22.0059 24.297 23.2267Z" fill="white"/>
<path d="M9.6582 16.4883H10.804V22.6897H11.888V16.4883H13.055V15.4727H9.6582V16.4883Z" fill="#D31800"/>
<path d="M18.8232 17.2468C18.4648 17.2468 18.1304 17.4425 17.8161 17.8299V15.4727H16.8418V22.69H17.8161V22.169C18.1422 22.5715 18.4763 22.7643 18.8232 22.7643C19.2108 22.7643 19.4716 22.5602 19.6017 22.1599C19.6671 21.9319 19.7005 21.5738 19.7005 21.0762V18.9348C19.7005 18.4257 19.6671 18.0703 19.6017 17.8541C19.4719 17.4508 19.2105 17.2468 18.8232 17.2468ZM18.7256 21.1525C18.7256 21.6386 18.5831 21.8781 18.3016 21.8781C18.1416 21.8781 17.9787 21.8015 17.8158 21.6383V18.3609C17.9787 18.1998 18.1416 18.1235 18.3016 18.1235C18.5828 18.1235 18.7256 18.3724 18.7256 18.8574V21.1525Z" fill="#D31800"/>
<path d="M15.0229 21.4183C14.8068 21.7238 14.6025 21.8743 14.4067 21.8743C14.2766 21.8743 14.2024 21.7977 14.1788 21.6463C14.1699 21.6149 14.1699 21.4961 14.1699 21.2678V17.3086H13.1953V21.5602C13.1953 21.9402 13.2281 22.1969 13.2814 22.3601C13.3792 22.6327 13.5957 22.7604 13.9091 22.7604C14.2678 22.7604 14.6356 22.544 15.0229 22.0999V22.6865H15.9981V17.3086H15.0229V21.4183Z" fill="#D31800"/>
<path d="M15.8588 12.3405C16.1761 12.3405 16.3284 12.0889 16.3284 11.5862V9.30028C16.3284 8.79732 16.1761 8.54688 15.8588 8.54688C15.5412 8.54688 15.3887 8.79762 15.3887 9.30028V11.5862C15.3887 12.0892 15.5412 12.3405 15.8588 12.3405Z" fill="#D31800"/>
<path d="M21.929 17.2461C21.4305 17.2461 21.0434 17.4291 20.7619 17.7972C20.5553 18.0693 20.4609 18.4897 20.4609 19.0643V20.9481C20.4609 21.5196 20.5665 21.943 20.7741 22.2124C21.0553 22.5797 21.4435 22.7633 21.9533 22.7633C22.4621 22.7633 22.8616 22.5708 23.1313 22.1802C23.2495 22.0075 23.3264 21.8121 23.3589 21.5962C23.3681 21.4986 23.3796 21.2825 23.3796 20.9682V20.8265H22.3858C22.3858 21.2168 22.3731 21.4336 22.3646 21.4865C22.309 21.747 22.1688 21.8771 21.929 21.8771C21.5943 21.8771 21.4305 21.6287 21.4305 21.1314V20.1775H23.3796V19.0637C23.3796 18.4892 23.2824 18.0687 23.078 17.7967C22.8057 17.4294 22.4181 17.2461 21.929 17.2461ZM22.4057 19.3667H21.4311V18.8691C21.4311 18.3718 21.5946 18.1231 21.9201 18.1231C22.2424 18.1231 22.4057 18.3721 22.4057 18.8691V19.3667Z" fill="#D31800"/>
</svg>
