<?xml version="1.0" encoding="UTF-8" standalone="no"?>
<svg
   xmlns:dc="http://purl.org/dc/elements/1.1/"
   xmlns:cc="http://creativecommons.org/ns#"
   xmlns:rdf="http://www.w3.org/1999/02/22-rdf-syntax-ns#"
   xmlns:svg="http://www.w3.org/2000/svg"
   xmlns="http://www.w3.org/2000/svg"
   xmlns:sodipodi="http://sodipodi.sourceforge.net/DTD/sodipodi-0.dtd"
   xmlns:inkscape="http://www.inkscape.org/namespaces/inkscape"
   width="72.955849"
   height="108.26101"
   viewBox="0 0 72.955849 108.26101"
   fill="none"
   version="1.1"
   id="svg15"
   sodipodi:docname="about-icon-3.svg"
   inkscape:version="1.0.2 (e86c870879, 2021-01-15, custom)">
  <metadata
     id="metadata19">
    <rdf:RDF>
      <cc:Work
         rdf:about="">
        <dc:format>image/svg+xml</dc:format>
        <dc:type
           rdf:resource="http://purl.org/dc/dcmitype/StillImage" />
        <dc:title></dc:title>
      </cc:Work>
    </rdf:RDF>
  </metadata>
  <sodipodi:namedview
     pagecolor="#ffffff"
     bordercolor="#666666"
     borderopacity="1"
     objecttolerance="10"
     gridtolerance="10"
     guidetolerance="10"
     inkscape:pageopacity="0"
     inkscape:pageshadow="2"
     inkscape:window-width="2880"
     inkscape:window-height="1526"
     id="namedview17"
     showgrid="false"
     inkscape:zoom="9.631941"
     inkscape:cx="29.928342"
     inkscape:cy="61.373909"
     inkscape:window-x="-11"
     inkscape:window-y="1608"
     inkscape:window-maximized="1"
     inkscape:current-layer="svg15"
     inkscape:document-rotation="0" />
  <g
     clip-path="url(#clip0)"
     id="g8"
     style="fill:#ffffff"
     transform="matrix(1.4629866,0,0,1.4629866,-16.921461,-1.8295131e-6)">
    <path
       d="m 52.9194,45.0703 c -0.6717,0 -1.2163,0.5521 -1.2163,1.233 v 26.4651 c 0,0.6809 0.5446,1.233 1.2163,1.233 0.6717,0 1.2163,-0.5521 1.2163,-1.233 V 46.3033 c 0,-0.6811 -0.5444,-1.233 -1.2163,-1.233 z"
       fill="white"
       id="path2"
       style="fill:#ffffff" />
    <path
       d="M 46.4053,17.6483 C 45.9422,17.222 45.2359,17.2214 44.772,17.6466 l -4.5124,4.5705 H 35.853 c -0.6717,0 -1.2163,0.5521 -1.2163,1.233 0,0.6809 0.5446,1.2329 1.2163,1.2329 h 9.1489 c 0.6717,0 1.2163,-0.552 1.2163,-1.2329 0,-0.6809 -0.5446,-1.233 -1.2163,-1.233 h -1.3027 l 2.789,-2.8271 c 0.4514,-0.5041 0.4144,-1.284 -0.0829,-1.7417 z"
       fill="white"
       id="path4"
       style="fill:#ffffff" />
    <path
       d="M 59.9003,39.9706 C 58.4169,36.1895 55.834,32.9553 52.4944,30.6976 L 48.6838,28.1344 C 55.2792,22.3326 55.9863,12.2093 50.263,5.52353 44.5396,-1.16227 34.5531,-1.87908 27.9577,3.9227 c -6.5955,5.80178 -7.3026,15.925 -1.5792,22.6108 0.977,1.1414 2.1084,2.1369 3.3604,2.9571 l -1.6553,1.1898 c -6.5443,4.718 -11.9528,10.8735 -15.8215,18.0072 -0.4545,0.8384 -0.6937,1.7792 -0.6957,2.7359 v 0.9049 c -0.0038,1.4959 0.5779,2.9321 1.6177,3.9935 1.0328,1.0536 2.4367,1.6471 3.9018,1.6497 H 22.513 V 72.767 c 0,0.6809 0.5446,1.2329 1.2163,1.2329 0.6717,0 1.2162,-0.552 1.2162,-1.2329 V 57.9716 h 10.9624 c 2.6581,0.0088 4.8198,-2.1684 4.8285,-4.8629 9e-4,-0.2612 -0.019,-0.5223 -0.0594,-0.7803 l 1.7125,-2.2957 c 3.73,-4.9554 6.6383,-10.4941 8.6101,-16.3982 0.0997,-0.3045 0.1824,-0.5634 0.2566,-0.8014 2.8802,1.9775 5.1081,4.7863 6.3952,8.0622 0.8969,2.2528 1.3554,4.6601 1.3501,7.0895 V 72.767 c 0,0.6809 0.5446,1.2329 1.2163,1.2329 0.6717,0 1.2163,-0.552 1.2163,-1.2329 V 47.9848 c 0.0045,-2.7469 -0.5163,-5.4684 -1.5338,-8.0142 z M 17.0859,55.5057 c -0.8141,-0.0021 -1.5941,-0.3325 -2.1674,-0.9185 -0.59,-0.5994 -0.9209,-1.412 -0.9195,-2.2588 v -0.9049 c -2e-4,-0.5413 0.1342,-1.0738 0.3904,-1.5486 2.273,-4.1868 5.108,-8.0337 8.424,-11.4307 l 1.1275,9.6639 h -3.8605 c -0.6717,0 -1.2163,0.552 -1.2163,1.2329 0,0.6809 0.5446,1.233 1.2163,1.233 h 4.1354 l 0.5716,4.9317 z M 43.798,3.68505 35.6622,7.15579 30.9333,4.75895 C 34.7512,2.17408 39.6144,1.76813 43.798,3.68505 Z m -14.9287,2.78522 3.8398,1.94682 -6.9207,2.94921 c 0.6672,-1.83801 1.718,-3.50804 3.0809,-4.89603 z M 25.0672,14.355 46.3911,5.25336 c 0.7288,0.55945 1.3998,1.19272 2.002,1.8901 L 25.3712,19.3681 c -0.427,-1.6343 -0.5304,-3.3382 -0.304,-5.0131 z m 1.7377,8.5575 C 26.5807,22.5266 26.3754,22.1296 26.19,21.7229 L 49.8333,9.16164 C 53.5792,15.6078 51.4607,23.9117 45.1017,27.709 38.7425,31.5062 30.5508,29.3588 26.8049,22.9125 Z M 27.248,55.5057 25.021,36.3112 c 0.9,-0.8186 1.8365,-1.5905 2.7913,-2.3425 l 5.3103,21.537 z m 10.3761,-0.7188 c -0.4529,0.4616 -1.0691,0.7205 -1.7113,0.7188 H 35.6306 L 34.4143,50.574 h 1.4681 c 0.668,0.0044 1.3054,0.2849 1.7648,0.7767 0.9105,0.9631 0.9002,2.4856 -0.0231,3.4362 z M 48.7044,32.8504 c -1.8907,5.6513 -4.6772,10.9525 -8.25,15.6954 l -0.9353,1.2539 C 39.4631,49.7368 39.423,49.664 39.3646,49.6024 38.4493,48.6498 37.1941,48.1112 35.8824,48.1081 h -2.0762 l -3.8739,-15.7312 2.2039,-1.5831 c 4.709,2.043 10.1046,1.6317 14.4592,-1.1022 l 2.5542,1.7113 c -0.0839,0.3082 -0.2189,0.762 -0.4452,1.4475 z"
       fill="white"
       id="path6"
       style="fill:#ffffff" />
  </g>
  <defs
     id="defs13">
    <clipPath
       id="clip0">
      <rect
         width="73"
         height="74"
         fill="#ffffff"
         id="rect10"
         x="0"
         y="0" />
    </clipPath>
  </defs>
</svg>
