<?xml version="1.0" encoding="UTF-8" standalone="no"?>
<svg
   xmlns:dc="http://purl.org/dc/elements/1.1/"
   xmlns:cc="http://creativecommons.org/ns#"
   xmlns:rdf="http://www.w3.org/1999/02/22-rdf-syntax-ns#"
   xmlns:svg="http://www.w3.org/2000/svg"
   xmlns="http://www.w3.org/2000/svg"
   xmlns:sodipodi="http://sodipodi.sourceforge.net/DTD/sodipodi-0.dtd"
   xmlns:inkscape="http://www.inkscape.org/namespaces/inkscape"
   width="124.77763"
   height="106.07674"
   viewBox="0 0 124.77763 106.07674"
   fill="none"
   version="1.1"
   id="svg25"
   sodipodi:docname="about-icon-2.svg"
   inkscape:version="1.0.2 (e86c870879, 2021-01-15, custom)">
  <metadata
     id="metadata29">
    <rdf:RDF>
      <cc:Work
         rdf:about="">
        <dc:format>image/svg+xml</dc:format>
        <dc:type
           rdf:resource="http://purl.org/dc/dcmitype/StillImage" />
        <dc:title></dc:title>
      </cc:Work>
    </rdf:RDF>
  </metadata>
  <sodipodi:namedview
     pagecolor="#ffffff"
     bordercolor="#666666"
     borderopacity="1"
     objecttolerance="10"
     gridtolerance="10"
     guidetolerance="10"
     inkscape:pageopacity="0"
     inkscape:pageshadow="2"
     inkscape:window-width="2880"
     inkscape:window-height="1526"
     id="namedview27"
     showgrid="false"
     inkscape:zoom="6.631579"
     inkscape:cx="88.871625"
     inkscape:cy="82.578928"
     inkscape:window-x="-11"
     inkscape:window-y="1608"
     inkscape:window-maximized="1"
     inkscape:current-layer="svg25"
     inkscape:document-rotation="0" />
  <g
     clip-path="url(#clip0)"
     id="g18"
     style="fill:#ffffff"
     transform="matrix(1.6418391,0,0,1.6418391,0,-9.3507826)">
    <path
       d="m 74.732,39.8958 h -1.924 l 1.52,-3.8 h 0.404 c 0.6996,0 1.2667,-0.5671 1.2667,-1.2666 0,-0.6995 -0.5671,-1.2667 -1.2667,-1.2667 h -1.2666 c -0.5181,-5e-4 -0.9841,0.3146 -1.1767,0.7955 l -2.5334,6.3333 c -0.2603,0.6493 0.0553,1.3867 0.7046,1.647 0.1501,0.0602 0.3105,0.091 0.4722,0.0909 h 3.7999 c 0.6996,0 1.2667,-0.5672 1.2667,-1.2667 0,-0.6995 -0.5671,-1.2667 -1.2667,-1.2667 z"
       fill="white"
       id="path2"
       style="fill:#ffffff" />
    <path
       d="m 22.801,50.0312 c -2.7982,0 -5.0666,2.2685 -5.0666,5.0667 0,2.7982 2.2684,5.0667 5.0666,5.0667 2.7983,0 5.0667,-2.2685 5.0667,-5.0667 0,-2.7984 -2.2684,-5.0667 -5.0667,-5.0667 z m 0,7.6001 c -1.3992,0 -2.5333,-1.1342 -2.5333,-2.5334 0,-1.3992 1.1341,-2.5333 2.5333,-2.5333 1.3992,0 2.5334,1.1341 2.5334,2.5333 0,1.3992 -1.1342,2.5334 -2.5334,2.5334 z"
       fill="white"
       id="path4"
       style="fill:#ffffff" />
    <path
       d="M 44.3333,55.0953 C 44.361,53.467 43.339,52.0054 41.8,51.4727 v -20.444 c 0,-0.336 -0.1336,-0.6581 -0.3711,-0.8956 l -2.2408,-2.2407 -2.47,-16.0563 c -0.095,-0.6178 -0.6263,-1.0738 -1.2514,-1.0741 h -22.8 V 6.96198 C 12.6667,6.26246 12.0995,5.69531 11.4,5.69531 H 1.26667 C 0.56715,5.69531 0,6.26246 0,6.96198 0,7.6615 0.56715,8.22865 1.26667,8.22865 H 10.1333 V 44.962 H 1.26667 C 0.56715,44.962 0,45.5291 0,46.2287 c 0,0.6995 0.56715,1.2666 1.26667,1.2666 H 11.4 c 0.6995,0 1.2667,-0.5671 1.2667,-1.2666 V 13.2953 h 21.7182 l 2.3687,15.3926 c 0.0408,0.2661 0.1656,0.5125 0.3559,0.703 l 2.1572,2.1622 v 19.7422 h -7.0744 c -2.0637,-5.193 -7.9464,-7.7298 -13.1396,-5.6661 -4.3095,1.7127 -6.9032,6.1357 -6.2936,10.7328 H 1.26667 C 0.56715,56.362 0,56.9291 0,57.6287 c 0,0.6995 0.56715,1.2666 1.26667,1.2666 H 13.4127 c 2.0927,5.1845 7.9921,7.6908 13.1765,5.5981 2.5486,-1.0287 4.5694,-3.0495 5.5981,-5.5981 h 8.5994 c 2.0265,-0.075 3.6114,-1.7733 3.5466,-3.8 z m -21.5333,7.6 c -4.1974,0 -7.6,-3.4026 -7.6,-7.6 0.0041,-4.1957 3.4043,-7.5959 7.6,-7.6 4.1974,0 7.6,3.4026 7.6,7.6 0,4.1973 -3.4026,7.6 -7.6,7.6 z m 18.9683,-7.315 c -0.11,0.4894 -0.4922,0.8716 -0.9816,0.9817 h -7.8534 v -2.5333 h 7.8534 c 0.6995,0.1573 1.139,0.8519 0.9816,1.5516 z"
       fill="white"
       id="path6"
       style="fill:#ffffff" />
    <path
       d="m 74.7315,56.3628 h -1.3807 c -0.6954,-4.1344 -4.6107,-6.9224 -8.7451,-6.227 -3.1906,0.5366 -5.6903,3.0364 -6.2269,6.227 h -2.6473 v -3.8 c 0,-0.6996 -0.5672,-1.2667 -1.2667,-1.2667 h -2.5333 v -7.7102 l 12.7857,-1.1565 c 0.4577,-0.0413 0.8572,-0.3272 1.0437,-0.7473 l 4.7323,-10.6527 h 4.2383 c 0.6995,0 1.2666,-0.5671 1.2666,-1.2666 0,-0.6996 -0.5671,-1.2667 -1.2666,-1.2667 h -5.0667 c -0.5007,0 -0.9544,0.2948 -1.1577,0.7524 l -4.764,10.7198 -13.1872,1.1945 c -0.6568,0.0566 -1.1602,0.6075 -1.1578,1.2666 v 9.001 c -1.5589,0.5313 -2.5875,2.0195 -2.5333,3.6657 -0.1075,1.9787 1.3993,3.6743 3.3769,3.8 h 8.1371 c 0.6954,4.1344 4.6107,6.9223 8.7451,6.2269 3.1905,-0.5366 5.6903,-3.0363 6.2269,-6.2269 h 1.3807 c 0.6995,0 1.2666,-0.5672 1.2666,-1.2667 0,-0.6995 -0.5671,-1.2666 -1.2666,-1.2666 z m -21.5334,0 h -2.9513 c -0.399,0 -0.8436,-0.5206 -0.8436,-1.2667 0,-0.7461 0.4446,-1.2667 0.8436,-1.2667 h 2.9513 z m 12.6667,6.3333 c -2.7982,0 -5.0667,-2.2685 -5.0667,-5.0667 0,-2.7982 2.2685,-5.0666 5.0667,-5.0666 2.7982,0 5.0667,2.2684 5.0667,5.0666 0,2.7982 -2.2685,5.0667 -5.0667,5.0667 z"
       fill="white"
       id="path8"
       style="fill:#ffffff" />
    <path
       d="m 32.9315,28.3594 -1.2667,-11.4 C 31.5934,16.3148 31.0467,15.8281 30.3982,15.8321 H 17.7315 c -0.6995,0 -1.2667,0.5671 -1.2667,1.2666 v 11.4 c 0,0.6995 0.5672,1.2667 1.2667,1.2667 h 13.9333 c 0.6996,0.0043 1.2702,-0.5594 1.2743,-1.2589 3e-4,-0.0493 -0.0022,-0.0983 -0.0076,-0.1471 z M 18.9982,27.2321 v -8.8667 h 10.2663 l 0.9855,8.8667 z"
       fill="white"
       id="path10"
       style="fill:#ffffff" />
    <path
       d="m 35.4698,42.4297 c -0.6995,0 -1.2667,0.5671 -1.2667,1.2667 v 3.8 c 0,0.6995 0.5672,1.2666 1.2667,1.2666 0.6995,0 1.2667,-0.5671 1.2667,-1.2666 v -3.8 c 0,-0.6997 -0.5672,-1.2667 -1.2667,-1.2667 z"
       fill="white"
       id="path12"
       style="fill:#ffffff" />
    <path
       d="m 56.6409,66.8691 -3.8038,-3.8 c -0.4931,-0.4962 -1.2951,-0.4989 -1.7914,-0.0057 -0.0444,0.044 -0.0854,0.0912 -0.1226,0.1412 l -2.57,3.42 -2.8766,-5.7595 c -0.3126,-0.6259 -1.0734,-0.8799 -1.6991,-0.5673 -0.0931,0.0465 -0.1802,0.1043 -0.2592,0.1721 l -6.7817,5.8077 V 62.698 c 0,-0.6995 -0.5672,-1.2667 -1.2667,-1.2667 -0.6995,0 -1.2667,0.5672 -1.2667,1.2667 v 6.3333 c 0,0.6995 0.5672,1.2667 1.2669,1.2665 0.3024,0 0.5948,-0.1083 0.8244,-0.3051 l 7.6342,-6.5436 3.0742,6.1484 c 0.3097,0.6273 1.0692,0.8848 1.6965,0.5752 0.1805,-0.0889 0.3371,-0.2197 0.4568,-0.3814 l 2.9235,-3.8988 2.7702,2.7677 c 0.5032,0.4861 1.305,0.4721 1.7911,-0.0311 0.4742,-0.4909 0.4742,-1.2692 0,-1.76 z"
       fill="white"
       id="path14"
       style="fill:#ffffff" />
    <path
       d="m 60.9634,24.7066 c -0.3539,-0.044 -0.71,0.063 -0.9809,0.2951 l -7.5569,6.4778 -3.1211,-7.2821 c -0.2758,-0.643 -1.0205,-0.9405 -1.6634,-0.6649 -0.3634,0.1558 -0.6332,0.4725 -0.7293,0.8561 L 44.3784,34.522 c -0.1703,0.677 0.2393,1.3642 0.9158,1.5365 0.6787,0.1698 1.3665,-0.2423 1.5365,-0.9209 l 1.6213,-6.4854 2.3193,5.41 c 0.2757,0.643 1.0205,0.9406 1.6633,0.6648 0.1181,-0.0506 0.2278,-0.1189 0.3254,-0.2025 l 6.3789,-5.4682 -0.8601,6.8831 c -0.0866,0.694 0.4057,1.3267 1.0995,1.4136 0.0524,0.0071 0.1055,0.0104 0.1583,0.0101 0.6402,0.0018 1.181,-0.4743 1.2604,-1.1096 l 1.2666,-10.1333 c 0.0865,-0.6943 -0.4061,-1.3272 -1.1002,-1.4136 z"
       fill="white"
       id="path16"
       style="fill:#ffffff" />
  </g>
  <defs
     id="defs23">
    <clipPath
       id="clip0">
      <rect
         width="76"
         height="76"
         fill="#ffffff"
         id="rect20"
         x="0"
         y="0" />
    </clipPath>
  </defs>
</svg>
