<?xml version="1.0" encoding="UTF-8" standalone="no"?>
<svg
   xmlns:dc="http://purl.org/dc/elements/1.1/"
   xmlns:cc="http://creativecommons.org/ns#"
   xmlns:rdf="http://www.w3.org/1999/02/22-rdf-syntax-ns#"
   xmlns:svg="http://www.w3.org/2000/svg"
   xmlns="http://www.w3.org/2000/svg"
   xmlns:sodipodi="http://sodipodi.sourceforge.net/DTD/sodipodi-0.dtd"
   xmlns:inkscape="http://www.inkscape.org/namespaces/inkscape"
   width="131.27614"
   height="84.686234"
   viewBox="0 0 131.27614 84.686234"
   fill="none"
   version="1.1"
   id="svg28"
   sodipodi:docname="about-icon-1.svg"
   inkscape:version="1.0.2 (e86c870879, 2021-01-15, custom)">
  <metadata
     id="metadata34">
    <rdf:RDF>
      <cc:Work
         rdf:about="">
        <dc:format>image/svg+xml</dc:format>
        <dc:type
           rdf:resource="http://purl.org/dc/dcmitype/StillImage" />
        <dc:title></dc:title>
      </cc:Work>
    </rdf:RDF>
  </metadata>
  <defs
     id="defs32" />
  <sodipodi:namedview
     pagecolor="#ffffff"
     bordercolor="#666666"
     borderopacity="1"
     objecttolerance="10"
     gridtolerance="10"
     guidetolerance="10"
     inkscape:pageopacity="0"
     inkscape:pageshadow="2"
     inkscape:window-width="2880"
     inkscape:window-height="1526"
     id="namedview30"
     showgrid="false"
     inkscape:zoom="8.1290323"
     inkscape:cx="58.170221"
     inkscape:cy="44.70015"
     inkscape:window-x="-11"
     inkscape:window-y="1608"
     inkscape:window-maximized="1"
     inkscape:current-layer="svg28"
     inkscape:document-rotation="0" />
  <path
     d="m 35.880789,43.037491 c 0.143655,-0.417605 0.153159,-0.86978 0.02713,-1.29317 C 35.781896,41.32107 35.52654,40.947678 35.177801,40.67662 L 27.820004,34.959764 C 19.8588,28.78605 10.0745,25.427585 0,25.410506 v 4.234718 c 9.1332101,0.01447 18.003682,3.057934 25.221959,8.653724 l 2.483589,1.933073 H 0 v 4.234718 h 33.877748 c 0.441156,1.38e-4 0.871295,-0.137457 1.230363,-0.393777 0.359206,-0.256182 0.629299,-0.61828 0.772678,-1.035471 z"
     fill="white"
     id="path2"
     style="fill:#ffffff;stroke-width:1.37733" />
  <path
     d="m 4.2341952,48.70132 h 8.4694228 v 4.234719 H 4.2341952 Z"
     fill="white"
     id="path4"
     style="fill:#ffffff;stroke-width:1.37733" />
  <path
     d="m 44.465233,63.518289 c -1.256394,0 -2.484416,0.372567 -3.529116,1.070456 -1.044562,0.698027 -1.858697,1.690114 -2.339521,2.850784 -0.480686,1.160671 -0.606574,2.437862 -0.36141,3.670016 0.245026,1.232153 0.850083,2.364038 1.738457,3.252411 0.888374,0.888374 2.020121,1.493295 3.252274,1.738458 1.232291,0.245026 2.509483,0.119277 3.670154,-0.361547 1.16067,-0.480686 2.152756,-1.29496 2.850646,-2.339522 0.698028,-1.044562 1.070593,-2.272721 1.070593,-3.528978 0,-1.684741 -0.669241,-3.300342 -1.860488,-4.49159 -1.191247,-1.191246 -2.806985,-1.860488 -4.491589,-1.860488 z m 0,8.469438 c -0.418844,0 -0.828184,-0.124235 -1.176372,-0.356865 -0.348188,-0.23263 -0.619658,-0.563325 -0.779841,-0.950215 -0.16032,-0.38689 -0.202191,-0.812621 -0.120515,-1.223339 0.08167,-0.410718 0.283315,-0.787967 0.579439,-1.084092 0.296125,-0.296124 0.673511,-0.497902 1.08423,-0.579577 0.410718,-0.08167 0.836448,-0.03967 1.223338,0.120516 0.38689,0.16032 0.717585,0.431653 0.950216,0.77984 0.23263,0.348188 0.356864,0.757528 0.356864,1.176372 0,0.561535 -0.223126,1.100068 -0.620209,1.497151 -0.397082,0.397082 -0.935616,0.620209 -1.49715,0.620209 z"
     fill="white"
     id="path6"
     style="fill:#ffffff;stroke-width:1.37733" />
  <path
     d="m 131.27613,16.936799 h -14.82151 c -2.95436,-0.0032 -5.86368,0.72461 -8.46848,2.118461 -2.60492,1.393851 -4.82448,3.410529 -6.46102,5.87029 l -7.544147,11.315125 c -1.146484,1.723858 -2.669252,3.164813 -4.453575,4.21461 -1.784323,1.049657 -3.783645,1.68061 -5.847289,1.845338 l -3.57622,-5.365364 c -0.205772,-0.308796 -0.489088,-0.558229 -0.821573,-0.722957 -0.332349,-0.164866 -0.702298,-0.239516 -1.07266,-0.21624 -0.370362,0.02314 -0.72819,0.143242 -1.0374,0.348188 -0.309347,0.204946 -0.559469,0.487572 -0.725023,0.819645 l -3.161232,6.324532 -4.355372,-2.905052 c -0.270782,-0.179189 -0.579165,-0.293645 -0.901183,-0.334689 -0.322019,-0.0409 -0.649133,-0.0073 -0.956138,0.0982 -0.307006,0.105641 -0.585638,0.280423 -0.814274,0.51085 -0.228636,0.230426 -0.401352,0.510435 -0.504513,0.818267 l -1.033269,3.101871 -1.812419,-1.81242 C 62.51175,42.568509 61.973217,42.34552 61.41182,42.34552 c -0.561397,0 -1.09993,0.222989 -1.497013,0.619934 l -1.81242,1.81242 -1.033268,-3.101871 c -0.114042,-0.34254 -0.313754,-0.650234 -0.580266,-0.893744 -0.266374,-0.243649 -0.590734,-0.414988 -0.942089,-0.497903 -0.351356,-0.08305 -0.717999,-0.07478 -1.065222,0.02397 -0.347224,0.09862 -0.663595,0.284418 -0.918813,0.539773 l -2.94513,2.93673 -18.85721,-14.143871 C 22.587002,22.789459 11.449593,19.077021 0,19.054158 v 4.234719 c 10.533452,0.02217 20.779541,3.437524 29.219503,9.73988 l 20.326676,15.244904 c 0.407688,0.305766 0.912063,0.454104 1.420434,0.41788 0.508369,-0.03608 0.986576,-0.254392 1.346884,-0.614837 l 1.812557,-1.81242 1.033269,3.10187 c 0.114042,0.34254 0.313754,0.650234 0.580266,0.893745 0.266374,0.243648 0.590734,0.414987 0.941951,0.497902 0.351356,0.08305 0.718137,0.07479 1.06536,-0.02383 0.347223,-0.09875 0.663457,-0.284555 0.918675,-0.539911 l 2.737843,-2.737706 2.11736,2.117359 v 9.710269 c -0.552721,0 -1.166731,0 -1.869717,0 h -6.832626 c -1.952769,-1.915859 -4.398345,-3.252689 -7.065118,-3.862017 -2.666773,-0.609327 -5.450344,-0.467325 -8.041365,0.410167 -2.590883,0.87763 -4.887845,2.456319 -6.635393,4.560869 -1.747686,2.104412 -2.877504,4.652323 -3.264119,7.360279 H 0 v 4.234722 h 29.81244 c 0.506167,3.525122 2.266386,6.749573 4.957676,9.081932 2.691152,2.33236 6.133083,3.616301 9.694429,3.616301 3.561206,0 7.003138,-1.283941 9.694428,-3.616301 2.691152,-2.332359 4.451372,-5.55681 4.957675,-9.081932 h 2.238013 c 1.587503,-0.0047 3.115506,-0.603681 4.283476,-1.678958 1.167833,1.075277 2.695835,1.674275 4.283338,1.678958 h 4.355372 c 0.506304,3.525122 2.266524,6.749573 4.957675,9.081932 2.69129,2.33236 6.133222,3.616301 9.694429,3.616301 3.561345,0 7.003276,-1.283941 9.694428,-3.616301 2.691291,-2.332359 4.451511,-5.55681 4.957671,-9.081932 h 27.69508 v -4.234718 h -27.69508 c -0.21073,-1.46809 -0.64252,-2.895823 -1.28091,-4.234719 h 28.97599 v -4.23458 H 99.282842 c -1.535578,-1.508032 -3.38188,-2.662367 -5.409851,-3.382707 -2.028109,-0.720203 -4.188992,-0.988919 -6.331693,-0.787278 -2.142703,0.20164 -4.215436,0.868815 -6.073584,1.954697 -1.858009,1.08602 -3.456668,2.564576 -4.683863,4.332509 H 67.755496 V 49.042207 l 1.132711,-3.387664 4.044097,2.697488 c 0.249984,0.166793 0.532473,0.278632 0.828873,0.327803 0.2964,0.04917 0.599962,0.03485 0.890302,-0.04229 0.290477,-0.07713 0.561121,-0.215138 0.794027,-0.404934 0.232905,-0.189794 0.422838,-0.42697 0.55699,-0.695823 l 2.602314,-5.206558 2.210466,3.317972 c 0.194616,0.28786 0.457134,0.52352 0.764415,0.685907 0.307143,0.162525 0.649683,0.246816 0.997182,0.245715 2.954083,0.0029 5.86299,-0.724886 8.467509,-2.118737 2.604519,-1.393989 4.8238,-3.410528 6.459922,-5.870152 L 105.04846,27.27581 c 1.25047,-1.879082 2.94623,-3.419893 4.93632,-4.484839 1.99009,-1.065085 4.21269,-1.621386 6.46984,-1.619457 h 14.82151 z m -86.811585,63.52064 c -2.093945,0 -4.140786,-0.620898 -5.881723,-1.784184 -1.741074,-1.163288 -3.098013,-2.816627 -3.899202,-4.751216 -0.801327,-1.934451 -1.010955,-4.063103 -0.602442,-6.116693 0.408515,-2.053726 1.416716,-3.940109 2.897338,-5.420594 1.480623,-1.480623 3.367005,-2.488961 5.420594,-2.897475 2.053589,-0.408377 4.182243,-0.198747 6.116831,0.602579 1.93445,0.801189 3.587928,2.158128 4.751214,3.899203 1.163288,1.740936 1.784185,3.787777 1.784185,5.881584 -0.0035,2.806847 -1.119902,5.497586 -3.104624,7.482309 -1.984585,1.984723 -4.675463,3.101182 -7.482171,3.104487 z M 61.354661,67.753284 h -2.238013 c -0.21073,-1.46809 -0.642659,-2.895823 -1.281048,-4.234719 h 5.685178 v 2.06874 c -6.89e-4,0.574344 -0.229049,1.12486 -0.635085,1.531033 -0.406172,0.406034 -0.956688,0.634394 -1.531032,0.634946 z m 27.57429,-8.469299 c 2.093944,0 4.140785,0.620897 5.881722,1.784184 1.741074,1.163287 3.098013,2.816626 3.899202,4.751077 0.801327,1.934588 1.010957,4.063242 0.602442,6.116831 -0.408515,2.053589 -1.416716,3.939971 -2.897338,5.420594 -1.480623,1.480623 -3.367004,2.48896 -5.420594,2.897337 -2.053589,0.408515 -4.182243,0.198886 -6.116831,-0.602441 -1.93445,-0.801189 -3.587789,-2.158128 -4.751214,-3.899203 -1.163288,-1.740936 -1.784185,-3.787776 -1.784185,-5.881721 0.0035,-2.80671 1.119902,-5.497587 3.104624,-7.482172 1.984586,-1.984723 4.675463,-3.101181 7.482172,-3.104486 z m -14.652104,8.469299 h -4.355372 c -0.564565,-0.0015 -1.106266,-0.223816 -1.508995,-0.61952 -0.402868,-0.395706 -0.634809,-0.933275 -0.646516,-1.49784 h 6.976694 c -0.207288,0.693344 -0.363063,1.401151 -0.465811,2.11736 z"
     fill="white"
     id="path8"
     style="fill:#ffffff;stroke-width:1.37733" />
  <path
     d="m 118.57322,25.410644 c -2.3044,-0.0075 -4.57217,0.57517 -6.58773,1.692317 -2.01544,1.117009 -3.71148,2.73137 -4.92642,4.689373 l -7.220198,11.552299 c -0.20041,0.320504 -0.31128,0.6888 -0.3212,1.0666 -0.01,0.3778 0.0815,0.751468 0.26472,1.082025 0.18319,0.330558 0.451628,0.606161 0.777228,0.797884 0.32574,0.191861 0.69679,0.293094 1.07472,0.293094 h 25.40832 c 0.56153,0 1.10006,-0.223126 1.49714,-0.620208 0.39708,-0.397083 0.62021,-0.935616 0.62021,-1.497151 V 27.528002 c 0,-0.561533 -0.22313,-1.100205 -0.62021,-1.497288 -0.39708,-0.397082 -0.93561,-0.62007 -1.49714,-0.62007 z m 6.35208,16.938874 h -19.47976 l 5.19608,-8.312836 c 0.83646,-1.348812 2.0047,-2.460726 3.39331,-3.229547 1.38862,-0.768823 2.95106,-1.168797 4.53829,-1.161773 h 6.35208 z"
     fill="white"
     id="path10"
     style="fill:#ffffff;stroke-width:1.37733" />
  <path
     d="m 88.926885,76.222445 c 1.256394,0 2.484416,-0.372566 3.529115,-1.070594 1.044562,-0.69789 1.858698,-1.689975 2.339522,-2.850645 0.480686,-1.160671 0.606574,-2.437863 0.36141,-3.670017 -0.245026,-1.232291 -0.850084,-2.364038 -1.738458,-3.252412 -0.888374,-0.888373 -2.02012,-1.493293 -3.252273,-1.738457 -1.232292,-0.245026 -2.509483,-0.119276 -3.670154,0.361548 -1.16067,0.480686 -2.152757,1.294821 -2.850647,2.339522 -0.698027,1.044562 -1.070593,2.272583 -1.070593,3.528977 0,1.684605 0.669241,3.300343 1.860488,4.491589 1.191248,1.191247 2.806986,1.860489 4.49159,1.860489 z m 0,-8.469437 c 0.418844,0 0.828184,0.124235 1.176372,0.356865 0.348187,0.232629 0.61952,0.563325 0.779841,0.950215 0.16032,0.38689 0.202191,0.812621 0.120516,1.223339 -0.08168,0.410717 -0.283316,0.787966 -0.57944,1.084091 -0.296125,0.296124 -0.673512,0.497764 -1.08423,0.579578 -0.410718,0.08167 -0.836448,0.03967 -1.223338,-0.120516 -0.38689,-0.160321 -0.717586,-0.431654 -0.950216,-0.77984 -0.23263,-0.348188 -0.356864,-0.757667 -0.356864,-1.176373 0,-0.561535 0.223126,-1.100068 0.620209,-1.497151 0.397081,-0.397081 0.935616,-0.620208 1.49715,-0.620208 z"
     fill="white"
     id="path12"
     style="fill:#ffffff;stroke-width:1.37733" />
  <path
     d="m 53.445795,33.140596 3.214121,-2.752581 -9.140607,-10.662963 11.505747,1.43765 c 0.456032,0.0566 0.918262,-0.03664 1.316584,-0.265822 0.39846,-0.229188 0.711387,-0.581782 0.891817,-1.004483 L 65.639652,9.6125652 70.045847,19.892397 c 0.180292,0.422701 0.493358,0.775295 0.891817,1.004483 0.398322,0.229186 0.860551,0.322431 1.316584,0.265822 l 11.505746,-1.43765 -9.140607,10.662963 3.214122,2.752581 12.704156,-14.821515 c 0.277944,-0.32436 0.451348,-0.725299 0.497213,-1.150065 0.04586,-0.424904 -0.03773,-0.853527 -0.239929,-1.22995 -0.202329,-0.376284 -0.513742,-0.682739 -0.893332,-0.878733 -0.379591,-0.19613 -0.809591,-0.272847 -1.233669,-0.219958 L 73.310793,16.760777 67.593936,3.4023661 c -0.16335,-0.380692 -0.434683,-0.7051212 -0.780529,-0.9330957 -0.345846,-0.2279746 -0.751055,-0.349482 -1.165353,-0.349482 -0.414162,0 -0.81937,0.1215074 -1.165216,0.349482 -0.345846,0.2279745 -0.617316,0.5524037 -0.780529,0.9330957 L 57.985453,16.760777 42.628159,14.840375 c -0.42394,-0.05289 -0.853941,0.02383 -1.233531,0.219958 -0.37959,0.195994 -0.691003,0.502449 -0.893332,0.878733 -0.202191,0.376423 -0.285932,0.805046 -0.23993,1.22995 0.04586,0.424766 0.219271,0.825705 0.497214,1.150065 z"
     fill="white"
     id="path14"
     style="fill:#ffffff;stroke-width:1.37733" />
  <path
     d="M 97.39825,4.2347099 V 0 c -2.246276,0 -4.40041,0.89231248 -5.988739,2.4806339 -1.58833,1.5883293 -2.480698,3.7425595 -2.480698,5.9887948 h 4.234719 c 0,-1.1231106 0.446115,-2.2002327 1.240279,-2.9943979 0.794165,-0.7941642 1.87137,-1.2403209 2.994439,-1.2403209 z"
     fill="white"
     id="path16"
     style="fill:#ffffff;stroke-width:1.37733" />
  <path
     d="m 29.644682,14.822333 h 4.234719 v 4.234717 h -4.234719 z"
     fill="white"
     id="path18"
     style="fill:#ffffff;stroke-width:1.37733" />
  <path
     d="M 44.467161,4.2341862 H 48.70188 V 8.468905 h -4.234719 z"
     fill="white"
     id="path20"
     style="fill:#ffffff;stroke-width:1.37733" />
  <path
     d="m 21.171526,12.703623 h 4.234719 c 0,-2.246235 -0.892368,-4.4004647 -2.480697,-5.988794 -1.58833,-1.5883294 -3.742601,-2.4806289 -5.98874,-2.4806428 V 8.468905 c 1.123069,0 2.200137,0.4461568 2.994301,1.2403214 0.794165,0.7941646 1.240417,1.8712726 1.240417,2.9943966 z"
     fill="white"
     id="path22"
     style="fill:#ffffff;stroke-width:1.37733" />
  <path
     d="m 86.808975,27.524973 h 4.234718 v 4.234719 h -4.234718 z"
     fill="white"
     id="path24"
     style="fill:#ffffff;stroke-width:1.37733" />
  <path
     d="m 103.75115,8.4683813 h 4.23472 v 4.2347327 h -4.23472 z"
     fill="white"
     id="path26"
     style="fill:#ffffff;stroke-width:1.37733" />
</svg>
