<svg width="96" height="62" viewBox="0 0 96 62" fill="none" xmlns="http://www.w3.org/2000/svg">
<path d="M26.7386 31.5011C26.8429 31.1979 26.8498 30.8696 26.7583 30.5622C26.6668 30.2549 26.4814 29.9838 26.2282 29.787L20.8861 25.6363C15.1059 21.1539 8.00205 18.7155 0.6875 18.7031V21.7777C7.31863 21.7882 13.759 23.9979 18.9998 28.0607L20.803 29.4642H0.6875V32.5388H25.2843C25.6046 32.5389 25.9169 32.439 26.1776 32.2529C26.4384 32.0669 26.6345 31.804 26.7386 31.5011Z" fill="white"/>
<path d="M3.76172 35.6133H9.91091V38.6879H3.76172V35.6133Z" fill="white"/>
<path d="M32.9713 46.3711C32.0591 46.3711 31.1675 46.6416 30.409 47.1483C29.6506 47.6551 29.0595 48.3754 28.7104 49.2181C28.3614 50.0608 28.27 50.9881 28.448 51.8827C28.6259 52.7773 29.0652 53.5991 29.7102 54.2441C30.3552 54.8891 31.1769 55.3283 32.0715 55.5063C32.9662 55.6842 33.8935 55.5929 34.7362 55.2438C35.5789 54.8948 36.2992 54.3036 36.8059 53.5452C37.3127 52.7868 37.5832 51.8951 37.5832 50.983C37.5832 49.7598 37.0973 48.5868 36.2324 47.7219C35.3675 46.857 34.1944 46.3711 32.9713 46.3711ZM32.9713 52.5203C32.6672 52.5203 32.37 52.4301 32.1172 52.2612C31.8644 52.0923 31.6673 51.8522 31.551 51.5713C31.4346 51.2904 31.4042 50.9813 31.4635 50.6831C31.5228 50.3849 31.6692 50.111 31.8842 49.896C32.0992 49.681 32.3732 49.5345 32.6714 49.4752C32.9696 49.4159 33.2787 49.4464 33.5596 49.5627C33.8405 49.6791 34.0806 49.8761 34.2495 50.1289C34.4184 50.3817 34.5086 50.6789 34.5086 50.983C34.5086 51.3907 34.3466 51.7817 34.0583 52.07C33.77 52.3583 33.379 52.5203 32.9713 52.5203Z" fill="white"/>
<path d="M96 12.5508H85.2389C83.0939 12.5485 80.9816 13.0769 79.0904 14.0889C77.1991 15.1009 75.5876 16.5651 74.3994 18.351L68.922 26.5663C68.0896 27.8179 66.984 28.8641 65.6885 29.6263C64.393 30.3884 62.9414 30.8465 61.4431 30.9661L58.8466 27.0706C58.6972 26.8464 58.4915 26.6653 58.2501 26.5457C58.0088 26.426 57.7402 26.3718 57.4713 26.3887C57.2024 26.4055 56.9426 26.4927 56.7181 26.6415C56.4935 26.7903 56.3119 26.9955 56.1917 27.2366L53.8965 31.8285L50.7343 29.7193C50.5377 29.5892 50.3138 29.5061 50.08 29.4763C49.8462 29.4466 49.6087 29.471 49.3858 29.5476C49.1629 29.6243 48.9606 29.7512 48.7946 29.9185C48.6286 30.0858 48.5032 30.2891 48.4283 30.5126L47.6781 32.7647L46.3622 31.4488C46.0739 31.1606 45.6829 30.9987 45.2753 30.9987C44.8677 30.9987 44.4767 31.1606 44.1884 31.4488L42.8725 32.7647L42.1223 30.5126C42.0395 30.2639 41.8945 30.0405 41.701 29.8637C41.5076 29.6868 41.2721 29.5624 41.017 29.5022C40.7619 29.4419 40.4957 29.4479 40.2436 29.5196C39.9915 29.5912 39.7618 29.7261 39.5765 29.9115L37.4382 32.0437L23.747 21.7746C17.0867 16.8001 9.00043 14.1047 0.6875 14.0881V17.1627C8.33527 17.1788 15.7744 19.6585 21.9022 24.2343L36.6603 35.3028C36.9563 35.5248 37.3225 35.6325 37.6916 35.6062C38.0607 35.58 38.4079 35.4215 38.6695 35.1598L39.9855 33.8439L40.7357 36.096C40.8185 36.3447 40.9635 36.5681 41.157 36.7449C41.3504 36.9218 41.5859 37.0462 41.8409 37.1064C42.096 37.1667 42.3623 37.1607 42.6144 37.0891C42.8665 37.0174 43.0961 36.8825 43.2814 36.6971L45.2692 34.7094L46.8065 36.2467V43.2968C46.4052 43.2968 45.9594 43.2968 45.449 43.2968H40.4882C39.0704 41.9058 37.2948 40.9352 35.3586 40.4928C33.4224 40.0504 31.4014 40.1535 29.5202 40.7906C27.6391 41.4278 25.9714 42.574 24.7026 44.102C23.4337 45.6299 22.6134 47.4798 22.3327 49.4459H0.6875V52.5205H22.3327C22.7002 55.0799 23.9782 57.421 25.9322 59.1144C27.8861 60.8078 30.3851 61.74 32.9708 61.74C35.5564 61.74 38.0554 60.8078 40.0094 59.1144C41.9633 57.421 43.2413 55.0799 43.6089 52.5205H45.2338C46.3864 52.5171 47.4958 52.0822 48.3438 51.3015C49.1917 52.0822 50.3011 52.5171 51.4537 52.5205H54.6159C54.9835 55.0799 56.2615 57.421 58.2154 59.1144C60.1694 60.8078 62.6684 61.74 65.254 61.74C67.8397 61.74 70.3387 60.8078 72.2926 59.1144C74.2466 57.421 75.5246 55.0799 75.8921 52.5205H96V49.4459H75.8921C75.7391 48.38 75.4256 47.3434 74.9621 46.3713H96V43.2968H72.7714C71.6565 42.2019 70.316 41.3638 68.8436 40.8408C67.3711 40.3179 65.8022 40.1228 64.2465 40.2692C62.6908 40.4156 61.1859 40.9 59.8368 41.6884C58.4878 42.4769 57.3271 43.5504 56.4361 44.834H49.8811V35.8608L50.7035 33.4012L53.6397 35.3597C53.8212 35.4808 54.0263 35.562 54.2415 35.5977C54.4567 35.6334 54.6771 35.623 54.8879 35.567C55.0988 35.511 55.2953 35.4108 55.4644 35.273C55.6335 35.1352 55.7714 34.963 55.8688 34.7678L57.7582 30.9876L59.3631 33.3966C59.5044 33.6056 59.695 33.7767 59.9181 33.8946C60.1411 34.0126 60.3898 34.0738 60.6421 34.073C62.7869 34.0751 64.8989 33.5467 66.7899 32.5347C68.6809 31.5226 70.2922 30.0585 71.4801 28.2727L76.9575 20.0574C77.8654 18.6931 79.0966 17.5744 80.5415 16.8012C81.9864 16.0279 83.6001 15.624 85.2389 15.6254H96V12.5508ZM32.9708 58.6697C31.4505 58.6697 29.9644 58.2189 28.7004 57.3743C27.4363 56.5297 26.4511 55.3293 25.8694 53.9247C25.2876 52.5202 25.1354 50.9747 25.432 49.4837C25.7286 47.9926 26.4606 46.623 27.5356 45.5481C28.6106 44.4731 29.9802 43.741 31.4712 43.4444C32.9622 43.1479 34.5077 43.3001 35.9123 43.8819C37.3168 44.4636 38.5173 45.4488 39.3619 46.7129C40.2065 47.9769 40.6573 49.463 40.6573 50.9832C40.6548 53.0211 39.8442 54.9747 38.4032 56.4157C36.9623 57.8567 35.0086 58.6673 32.9708 58.6697ZM45.2338 49.4459H43.6089C43.4559 48.38 43.1423 47.3434 42.6788 46.3713H46.8065V47.8733C46.806 48.2903 46.6402 48.69 46.3454 48.9849C46.0505 49.2797 45.6508 49.4455 45.2338 49.4459ZM65.254 43.2968C66.7743 43.2968 68.2604 43.7476 69.5244 44.5922C70.7885 45.4368 71.7737 46.6372 72.3554 48.0417C72.9372 49.4463 73.0894 50.9918 72.7928 52.4828C72.4962 53.9738 71.7642 55.3434 70.6892 56.4184C69.6142 57.4934 68.2446 58.2255 66.7536 58.522C65.2626 58.8186 63.7171 58.6664 62.3125 58.0846C60.908 57.5029 59.7076 56.5177 58.8629 55.2536C58.0183 53.9896 57.5675 52.5035 57.5675 50.9832C57.57 48.9454 58.3806 46.9917 59.8216 45.5508C61.2625 44.1098 63.2162 43.2992 65.254 43.2968ZM54.6159 49.4459H51.4537C51.0438 49.4448 50.6505 49.2834 50.3581 48.9961C50.0656 48.7088 49.8972 48.3185 49.8887 47.9086H54.9541C54.8036 48.412 54.6905 48.9259 54.6159 49.4459Z" fill="white"/>
<path d="M86.7771 18.7032C85.104 18.6978 83.4575 19.1208 81.9941 19.9319C80.5308 20.7429 79.2994 21.915 78.4173 23.3366L73.1751 31.7241C73.0296 31.9568 72.9491 32.2242 72.9419 32.4985C72.9347 32.7728 73.0011 33.0441 73.1341 33.2841C73.2671 33.5241 73.462 33.7242 73.6984 33.8634C73.9349 34.0027 74.2043 34.0762 74.4787 34.0762H92.9263C93.334 34.0762 93.725 33.9142 94.0133 33.6259C94.3016 33.3376 94.4636 32.9466 94.4636 32.5389V20.2405C94.4636 19.8328 94.3016 19.4417 94.0133 19.1534C93.725 18.8651 93.334 18.7032 92.9263 18.7032H86.7771ZM91.389 31.0016H77.2458L81.0184 24.9661C81.6257 23.9868 82.4739 23.1795 83.4821 22.6213C84.4903 22.0631 85.6247 21.7727 86.7771 21.7778H91.389V31.0016Z" fill="white"/>
<path d="M65.2525 55.5949C66.1647 55.5949 67.0563 55.3244 67.8148 54.8176C68.5732 54.3109 69.1643 53.5906 69.5134 52.7479C69.8624 51.9052 69.9538 50.9779 69.7758 50.0833C69.5979 49.1886 69.1586 48.3669 68.5136 47.7219C67.8686 47.0769 67.0469 46.6377 66.1523 46.4597C65.2576 46.2818 64.3303 46.3731 63.4876 46.7222C62.6449 47.0712 61.9246 47.6623 61.4179 48.4208C60.9111 49.1792 60.6406 50.0708 60.6406 50.983C60.6406 52.2061 61.1265 53.3792 61.9914 54.2441C62.8563 55.109 64.0294 55.5949 65.2525 55.5949ZM65.2525 49.4457C65.5566 49.4457 65.8538 49.5359 66.1066 49.7048C66.3594 49.8737 66.5564 50.1138 66.6728 50.3947C66.7892 50.6756 66.8196 50.9847 66.7603 51.2829C66.701 51.5811 66.5546 51.855 66.3396 52.07C66.1246 52.285 65.8506 52.4314 65.5524 52.4908C65.2542 52.5501 64.9451 52.5196 64.6642 52.4033C64.3833 52.2869 64.1432 52.0899 63.9743 51.8371C63.8054 51.5843 63.7152 51.287 63.7152 50.983C63.7152 50.5753 63.8772 50.1843 64.1655 49.896C64.4538 49.6077 64.8448 49.4457 65.2525 49.4457Z" fill="white"/>
<path d="M39.4916 24.3155L41.8252 22.317L35.1887 14.5752L43.5424 15.619C43.8735 15.6601 44.2091 15.5924 44.4983 15.426C44.7876 15.2596 45.0148 15.0036 45.1458 14.6967L48.3449 7.23307L51.544 14.6967C51.6749 15.0036 51.9022 15.2596 52.1915 15.426C52.4807 15.5924 52.8163 15.6601 53.1474 15.619L61.5011 14.5752L54.8646 22.317L57.1982 24.3155L66.422 13.5544C66.6238 13.3189 66.7497 13.0278 66.783 12.7194C66.8163 12.4109 66.7556 12.0997 66.6088 11.8264C66.4619 11.5532 66.2358 11.3307 65.9602 11.1884C65.6846 11.046 65.3724 10.9903 65.0645 11.0287L53.9145 12.423L49.7638 2.72418C49.6452 2.44778 49.4482 2.21223 49.1971 2.04671C48.946 1.88119 48.6518 1.79297 48.351 1.79297C48.0503 1.79297 47.7561 1.88119 47.505 2.04671C47.2539 2.21223 47.0568 2.44778 46.9383 2.72418L42.7876 12.423L31.6375 11.0287C31.3297 10.9903 31.0175 11.046 30.7419 11.1884C30.4663 11.3307 30.2402 11.5532 30.0933 11.8264C29.9465 12.0997 29.8857 12.4109 29.9191 12.7194C29.9524 13.0278 30.0783 13.3189 30.2801 13.5544L39.4916 24.3155Z" fill="white"/>
<path d="M71.4031 3.3285V0.253906C69.7722 0.253906 68.2082 0.901766 67.055 2.05496C65.9018 3.20816 65.2539 4.77223 65.2539 6.4031H68.3285C68.3285 5.58767 68.6524 4.80563 69.229 4.22903C69.8056 3.65243 70.5877 3.3285 71.4031 3.3285Z" fill="white"/>
<path d="M22.2109 11.0156H25.2855V14.0902H22.2109V11.0156Z" fill="white"/>
<path d="M32.9727 3.32812H36.0473V6.40272H32.9727V3.32812Z" fill="white"/>
<path d="M16.059 9.47732H19.1336C19.1336 7.84645 18.4857 6.28238 17.3325 5.12918C16.1793 3.97598 14.6152 3.32813 12.9844 3.32812V6.40272C13.7998 6.40272 14.5818 6.72665 15.1584 7.30325C15.735 7.87985 16.059 8.66188 16.059 9.47732Z" fill="white"/>
<path d="M63.7148 20.2383H66.7894V23.3129H63.7148V20.2383Z" fill="white"/>
<path d="M76.0156 6.40234H79.0902V9.47695H76.0156V6.40234Z" fill="white"/>
</svg>
