<svg width="79" height="89" viewBox="0 0 79 89" fill="none" xmlns="http://www.w3.org/2000/svg">
<path d="M78.066 74.1667L78.0659 74.1666L67.0319 52.0966L66.9665 51.9657L67.0486 51.8445C70.6332 46.5576 72.7296 40.184 72.7296 33.3288C72.7296 15.0893 57.8903 0.25 39.6508 0.25C21.4113 0.25 6.57201 15.0893 6.57201 33.3288C6.57201 40.184 8.66845 46.5583 12.2537 51.8459L12.3359 51.967L12.2704 52.098L1.23507 74.1666C1.23506 74.1666 1.23505 74.1666 1.23503 74.1667C0.869796 74.8978 0.909069 75.7652 1.33813 76.4602L78.066 74.1667ZM78.066 74.1667C78.4319 74.8979 78.3926 75.7652 77.9628 76.4602L77.9628 76.4603C77.5336 77.1553 76.7748 77.5788 75.9578 77.5788H63.2976H63.1726L63.0976 77.6788L55.5007 87.807C55.0532 88.4037 54.3527 88.75 53.6155 88.75C52.638 88.75 51.8663 88.1666 51.5067 87.4467L51.5067 87.4466L41.0444 66.5228L40.9725 66.3791L40.812 66.3847C40.4253 66.3982 40.0387 66.4077 39.6508 66.4077C39.263 66.4077 38.8764 66.3982 38.4896 66.3847L38.3291 66.3791M78.066 74.1667L38.3291 66.3791M16.1291 77.5788L16.2041 77.6788L23.8002 87.8069L16.1291 77.5788ZM16.1291 77.5788H16.0041M16.1291 77.5788H16.0041M16.0041 77.5788H3.34385C2.52689 77.5788 1.76806 77.1553 1.33822 76.4603L16.0041 77.5788ZM38.3291 66.3791L38.2573 66.5228M38.3291 66.3791L38.2573 66.5228M38.2573 66.5228L27.795 87.4466C27.795 87.4466 27.795 87.4466 27.795 87.4466C27.434 88.168 26.663 88.75 25.6862 88.75C24.9484 88.75 24.2485 88.4038 23.8003 87.807L38.2573 66.5228ZM25.0414 81.6028L25.2842 81.9263L25.465 81.5645L33.1984 66.0972L33.3441 65.8057L33.0247 65.7405C26.3462 64.3773 20.394 60.9937 15.8338 56.2596L15.5883 56.0048L15.4301 56.3212L7.33897 72.5022L7.15805 72.864H7.56257H17.3078C18.0501 72.864 18.7487 73.2133 19.1937 73.8069L19.1938 73.807L25.0414 81.6028ZM61.9932 72.864H62.2432V72.8633H71.7384H72.1429L71.962 72.5015L63.8722 56.3199L63.714 56.0034L63.4685 56.2583C58.9083 60.9937 52.9555 64.3766 46.2762 65.7405L45.9569 65.8057L46.1026 66.0972L53.8366 81.5645L54.0175 81.9263L54.2602 81.6027L60.1072 73.8071C60.553 73.2133 61.2517 72.864 61.9932 72.864ZM39.6508 4.96484C24.0108 4.96484 11.2869 17.6888 11.2869 33.3288C11.2869 48.9688 24.0108 61.6928 39.6508 61.6928C55.2908 61.6928 68.0148 48.9688 68.0148 33.3288C68.0148 17.6888 55.2908 4.96484 39.6508 4.96484Z" fill="#AD7D45" stroke="white" stroke-width="0.5"/>
<path d="M52.7694 37.4936L52.7047 37.5709L52.7116 37.6714L53.4938 48.9824C53.5497 49.7929 53.185 50.575 52.5275 51.0526C51.8707 51.5296 51.0143 51.6352 50.261 51.332C50.261 51.3319 50.2609 51.3319 50.2609 51.3319L39.7444 47.0929L39.6509 47.0552L39.5575 47.0929L29.041 51.3312C28.7825 51.4353 27.7694 51.7756 26.7737 51.052C26.1169 50.5744 25.7522 49.7922 25.808 48.9817L26.5916 37.6715L26.5986 37.5709L26.5339 37.4936L19.2521 28.8022L19.252 28.8022C18.7303 28.1798 18.5663 27.3326 18.8169 26.5594C19.068 25.7873 19.699 25.1986 20.4873 25.0015L20.4873 25.0015L31.486 22.2501L31.5838 22.2257L31.6373 22.1402L37.6527 12.5288L37.6527 12.5287C38.0836 11.8399 38.8387 11.4219 39.6509 11.4219C40.4631 11.4219 41.2182 11.8399 41.6492 12.5287L41.6492 12.5288L47.666 22.1403L47.7195 22.2257L47.8172 22.2501L58.8166 25.0015C59.6042 25.1986 60.2353 25.7873 60.4864 26.5603L60.4865 26.5603C60.7375 27.3325 60.573 28.1797 60.0512 28.8022L60.0511 28.8022L52.7694 37.4936ZM47.9358 36.9477L47.9358 36.9476C47.8935 36.3394 48.0886 35.7391 48.4803 35.2712C48.4803 35.2711 48.4804 35.2711 48.4804 35.2711L53.7624 28.9679L54.0189 28.6617L53.6314 28.5648L45.6537 26.5691L45.6536 26.5691C45.0619 26.4212 44.5511 26.0498 44.2276 25.5328L44.2276 25.5328L39.8635 18.5614L39.6516 18.2228L39.4397 18.5614L35.0763 25.5328C34.7528 26.0498 34.242 26.4212 33.6503 26.5691L33.6502 26.5691L25.6725 28.5648L25.285 28.6617L25.5415 28.9678L30.8228 35.2711C31.2146 35.739 31.4098 36.3401 31.3681 36.9485L30.7998 45.1523L30.7722 45.5507L31.1426 45.4014L38.77 42.3268L38.7703 42.3267C39.0988 42.1938 39.7689 42.0189 40.5325 42.3268L40.5325 42.3268L48.1599 45.4014L48.5303 45.5507L48.5028 45.1523L47.9358 36.9477Z" fill="#AD7D45" stroke="white" stroke-width="0.5"/>
</svg>
