<svg width="90" height="89" viewBox="0 0 90 89" fill="none" xmlns="http://www.w3.org/2000/svg">
<path d="M14.2383 62.3796L14.2382 62.3795C11.5855 59.0604 10.1243 54.8846 10.1243 50.6232V3.49357L14.0164 5.14496C14.0164 5.14496 14.0164 5.14496 14.0165 5.14496C19.6444 7.53306 24.2418 8.66294 28.4603 8.66294C32.1647 8.66294 35.8313 7.55153 38.5632 6.44859C41.3005 5.34348 43.1355 4.23191 43.1867 4.20062L43.187 4.20041L44.6202 3.32193L46.0791 4.16254L46.081 4.16365C46.1293 4.19118 48.0295 5.27246 50.8284 6.34798C53.6212 7.42114 57.3455 8.50303 61.0331 8.50303C66.3391 8.50303 71.4023 6.68916 75.1756 5.1337L79.0411 3.54108V51.083C79.0411 55.1058 77.7854 58.951 75.4087 62.2095C68.0169 72.337 58.0408 80.061 45.7467 85.1635L45.9384 85.6253L45.7467 85.1635L44.6201 85.6312L43.5082 85.1315C32.0251 79.9699 22.1776 72.317 14.2383 62.3796ZM16.365 11.9587L15.7042 11.7342V12.4321V50.6232C15.7042 53.6524 16.7388 56.616 18.6203 58.9699C25.6961 67.8256 34.3998 74.7315 44.504 79.5113L44.71 79.6087L44.9186 79.5173C55.6279 74.8232 64.3609 67.923 70.8802 58.9902L70.8803 58.9902C72.5673 56.6778 73.4606 53.9418 73.4606 51.083V12.3893V11.6962L72.8029 11.9148C69.3124 13.075 65.3003 14.0099 61.0331 14.0099C54.3949 14.0099 47.9271 11.2688 44.9326 9.7942L44.7053 9.68229L44.4806 9.79935C41.5349 11.3342 35.1755 14.1703 28.4603 14.1703H28.4603C24.0666 14.1708 19.8738 13.1506 16.365 11.9587Z" fill="#AD7D45" stroke="white"/>
<path d="M29.306 50.254V50.794L28.766 50.758C28.574 50.758 28.406 50.884 28.262 51.136L25.634 55.834V60.136C25.634 60.388 25.754 60.514 25.994 60.514L26.858 60.478V61H22.736V60.478L23.618 60.514C23.846 60.514 23.96 60.382 23.96 60.118V56.266L20.846 51.1C20.726 50.872 20.582 50.758 20.414 50.758L19.91 50.794V50.254H23.888V50.794L22.934 50.758H22.916C22.784 50.758 22.718 50.818 22.718 50.938C22.718 51.01 22.748 51.094 22.808 51.19L25.274 55.294L27.632 51.118C27.668 51.058 27.686 50.998 27.686 50.938C27.686 50.818 27.626 50.758 27.506 50.758L26.57 50.794V50.254H29.306ZM30.023 60.46L30.743 60.514C30.959 60.514 31.067 60.382 31.067 60.118V51.136C31.067 51.028 31.031 50.938 30.959 50.866C30.899 50.782 30.815 50.746 30.707 50.758L30.023 50.794V50.254H37.619C37.787 50.254 37.889 50.248 37.925 50.236V53.026H37.439C37.439 52.222 37.235 51.646 36.827 51.298C36.431 50.938 35.783 50.758 34.883 50.758H32.957C32.813 50.758 32.741 50.842 32.741 51.01V55.15H34.433C34.841 55.15 35.171 54.988 35.423 54.664C35.675 54.34 35.801 53.896 35.801 53.332H36.287V57.49H35.801C35.801 56.962 35.663 56.524 35.387 56.176C35.123 55.828 34.805 55.654 34.433 55.654H32.741V60.262C32.741 60.418 32.813 60.496 32.957 60.496H35.477C36.293 60.496 36.911 60.262 37.331 59.794C37.763 59.326 37.979 58.654 37.979 57.778H38.465V61.054C38.201 61.018 37.673 61 36.881 61H30.023V60.46ZM50.4436 60.478V61H45.6736V60.478L46.5556 60.514C46.9156 60.55 47.0956 60.406 47.0956 60.082C47.0956 59.878 47.0356 59.644 46.9156 59.38L46.0336 57.256H41.8396L41.0116 59.272C40.8436 59.644 40.7596 59.944 40.7596 60.172C40.7596 60.424 40.8916 60.544 41.1556 60.532L42.0196 60.478V61H38.9056V60.478L39.3736 60.514H39.4456C39.6856 60.514 39.8836 60.4 40.0396 60.172C40.2196 59.908 40.3996 59.56 40.5796 59.128L44.3416 50.074H44.8096L48.6076 59.164C48.7756 59.596 48.9496 59.938 49.1296 60.19C49.2976 60.406 49.5076 60.514 49.7596 60.514H49.8496L50.4436 60.478ZM42.0556 56.752H45.8176L43.9276 52.216L42.0556 56.752ZM50.9762 60.478L51.6782 60.514C51.9062 60.514 52.0202 60.382 52.0202 60.118V51.136C52.0202 51.028 51.9842 50.938 51.9122 50.866C51.8522 50.782 51.7562 50.746 51.6242 50.758L50.9762 50.794V50.254H55.0262C56.3582 50.254 57.3242 50.482 57.9242 50.938C58.5242 51.382 58.8242 52.108 58.8242 53.116C58.8242 53.728 58.6202 54.262 58.2122 54.718C57.8162 55.162 57.2882 55.474 56.6282 55.654C57.0002 55.654 57.3722 55.78 57.7442 56.032C58.1282 56.284 58.4462 56.65 58.6982 57.13C58.9502 57.61 59.0762 58.168 59.0762 58.804C59.0762 59.164 59.1182 59.53 59.2022 59.902C59.2982 60.274 59.4302 60.472 59.5982 60.496C59.6702 60.52 59.7542 60.532 59.8502 60.532C59.9942 60.532 60.1082 60.508 60.1922 60.46V61H57.7442C57.6002 60.7 57.5162 60.304 57.4922 59.812C57.4682 59.5 57.4562 59.272 57.4562 59.128V58.534C57.4562 57.634 57.1622 56.962 56.5742 56.518C55.9982 56.074 55.2902 55.852 54.4502 55.852H53.6942V60.118C53.6942 60.382 53.8142 60.514 54.0542 60.514L54.9362 60.478V61H50.9762V60.478ZM55.3682 55.366C55.9202 55.366 56.3522 55.168 56.6642 54.772C56.9762 54.376 57.1322 53.824 57.1322 53.116C57.1322 52.288 56.9582 51.688 56.6102 51.316C56.2742 50.944 55.7462 50.758 55.0262 50.758H53.9102C53.7662 50.758 53.6942 50.818 53.6942 50.938V55.366H55.3682ZM61.8492 57.346C62.1252 59.566 63.2292 60.676 65.1612 60.676C65.7612 60.676 66.2352 60.478 66.5832 60.082C66.9432 59.686 67.1292 59.164 67.1412 58.516C67.1412 58.048 66.9792 57.64 66.6552 57.292C66.3432 56.932 65.9112 56.644 65.3592 56.428L63.5232 55.69C62.8752 55.426 62.3832 55.072 62.0472 54.628C61.7112 54.184 61.5432 53.662 61.5432 53.062C61.5432 52.522 61.6692 52.024 61.9212 51.568C62.1732 51.112 62.5512 50.752 63.0552 50.488C63.5592 50.212 64.1652 50.074 64.8732 50.074C65.2572 50.074 65.5812 50.11 65.8452 50.182C66.1212 50.242 66.3912 50.32 66.6552 50.416C66.9192 50.5 67.0992 50.56 67.1952 50.596C67.3872 50.668 67.5492 50.704 67.6812 50.704C67.8972 50.704 68.0712 50.68 68.2032 50.632C68.1672 50.92 68.1492 51.37 68.1492 51.982C68.1492 52.342 68.1552 52.6 68.1672 52.756C68.1792 52.912 68.2092 53.056 68.2572 53.188H67.7892C67.7892 52.408 67.5312 51.778 67.0152 51.298C66.5112 50.806 65.8752 50.56 65.1072 50.56C64.4832 50.56 63.9792 50.734 63.5952 51.082C63.2112 51.418 63.0192 51.892 63.0192 52.504C63.0192 52.9 63.1572 53.26 63.4332 53.584C63.7092 53.896 64.0872 54.148 64.5672 54.34L66.2232 55.006C67.1352 55.378 67.7832 55.792 68.1672 56.248C68.5632 56.692 68.7612 57.268 68.7612 57.976C68.7612 58.6 68.6052 59.158 68.2932 59.65C67.9932 60.13 67.5792 60.508 67.0512 60.784C66.5352 61.048 65.9712 61.18 65.3592 61.18C64.9872 61.18 64.6632 61.162 64.3872 61.126C64.1112 61.102 63.8172 61.042 63.5052 60.946C62.8692 60.766 62.3952 60.676 62.0832 60.676C61.9752 60.676 61.8612 60.688 61.7412 60.712C61.6212 60.736 61.5312 60.754 61.4712 60.766C61.5192 60.514 61.5432 60.016 61.5432 59.272C61.5432 58.3 61.4952 57.658 61.3992 57.346H61.8492Z" fill="#AD7D45"/>
<path d="M30.8648 30.6265C38.1704 30.8061 41.8232 33.1415 41.8232 37.6326C41.8232 39.2793 41.3591 40.6866 40.4309 41.8542C39.5027 43.0219 38.2602 43.9052 36.7033 44.504C35.1464 45.0729 33.4248 45.3573 31.5385 45.3573C29.8019 45.3573 28.26 45.1028 26.9127 44.5938C25.5653 44.0848 24.5174 43.4112 23.7689 42.5728C23.0204 41.7045 22.6461 40.7614 22.6461 39.7434C22.6461 39.0548 22.8258 38.5159 23.185 38.1266C23.5743 37.7075 24.1282 37.4979 24.8468 37.4979C25.5054 37.4979 26.0144 37.6625 26.3737 37.9919C26.763 38.3212 26.9576 38.7404 26.9576 39.2494C26.9576 39.6087 26.8827 39.968 26.733 40.3273C26.7031 40.4171 26.6582 40.5668 26.5983 40.7764C26.5384 40.986 26.5085 41.2105 26.5085 41.45C26.5085 42.2884 26.9576 42.9471 27.8558 43.4261C28.754 43.9052 29.8618 44.1447 31.1792 44.1447C33.335 44.1447 34.9817 43.5309 36.1194 42.3034C37.2572 41.0458 37.8261 39.5338 37.8261 37.7673C37.8261 35.8212 37.0626 34.3242 35.5356 33.2762C34.0086 32.1984 31.5834 31.5995 28.26 31.4798V30.2223C30.4457 29.9229 32.302 29.1294 33.829 27.842C35.356 26.5545 36.1194 24.9677 36.1194 23.0814C36.1194 21.794 35.7302 20.776 34.9518 20.0274C34.2032 19.249 33.0505 18.8598 31.4936 18.8598C30.266 18.8598 29.2181 19.1143 28.3498 19.6232C27.5115 20.1322 27.0923 20.7909 27.0923 21.5993C27.0923 21.8089 27.1222 22.0185 27.1821 22.2281C27.242 22.4377 27.2869 22.5724 27.3169 22.6323C27.4965 23.1113 27.5863 23.4856 27.5863 23.7551C27.5863 24.3239 27.3618 24.7581 26.9127 25.0575C26.4935 25.3569 25.9995 25.5066 25.4306 25.5066C24.6821 25.5066 24.1282 25.297 23.7689 24.8778C23.4096 24.4287 23.23 23.8599 23.23 23.1712C23.23 22.1233 23.6342 21.1802 24.4426 20.3418C25.2809 19.4735 26.3737 18.8148 27.7211 18.3657C29.0684 17.8867 30.5205 17.6472 32.0774 17.6472C34.323 17.6472 36.2242 18.1262 37.7812 19.0843C39.3381 20.0125 40.1165 21.3598 40.1165 23.1263C40.1165 25.0425 39.2183 26.6743 37.4219 28.0216C35.6254 29.339 33.4397 30.1774 30.8648 30.5366V30.6265ZM44.7894 31.5696C44.7894 26.9887 45.7625 23.5305 47.7086 21.1951C49.6548 18.8298 52.2446 17.6472 55.4782 17.6472C58.7418 17.6472 61.3466 18.8448 63.2928 21.24C65.2689 23.6054 66.2569 27.0486 66.2569 31.5696C66.2569 36.0607 65.2838 39.4889 63.3377 41.8542C61.3915 44.1896 58.7717 45.3573 55.4782 45.3573C52.1848 45.3573 49.5799 44.1747 47.6637 41.8093C45.7475 39.4141 44.7894 36.0008 44.7894 31.5696ZM48.7865 31.5247C48.7865 34.7284 49.041 37.2434 49.55 39.0698C50.059 40.8961 50.7925 42.1836 51.7506 42.9321C52.7387 43.6507 53.9812 44.01 55.4782 44.01C57.0052 44.01 58.2627 43.6357 59.2508 42.8872C60.2688 42.1087 61.0322 40.8063 61.5412 38.9799C62.0802 37.1536 62.3496 34.6685 62.3496 31.5247C62.3496 28.2911 62.0802 25.7611 61.5412 23.9347C61.0322 22.0784 60.2688 20.776 59.2508 20.0274C58.2627 19.249 57.0052 18.8598 55.4782 18.8598C53.2327 18.8598 51.556 19.8179 50.4482 21.7341C49.3404 23.6503 48.7865 26.9138 48.7865 31.5247Z" fill="#AD7D45"/>
</svg>
