<svg width="78" height="89" viewBox="0 0 78 89" fill="none" xmlns="http://www.w3.org/2000/svg">
<path d="M77.3297 74.1667L77.3296 74.1666L66.2956 52.0966L66.2301 51.9657L66.3123 51.8445C69.8969 46.5576 71.9933 40.184 71.9933 33.3288C71.9933 15.0893 57.154 0.25 38.9145 0.25C20.675 0.25 5.83568 15.0893 5.83568 33.3288C5.83568 40.184 7.93212 46.5583 11.5174 51.8459L11.5995 51.967L11.5341 52.098L0.498746 74.1666C0.498732 74.1666 0.498718 74.1666 0.498704 74.1667C0.133468 74.8978 0.17274 75.7652 0.601807 76.4602L77.3297 74.1667ZM77.3297 74.1667C77.6955 74.8979 77.6562 75.7652 77.2265 76.4602L77.2264 76.4603C76.7973 77.1553 76.0385 77.5788 75.2215 77.5788H62.5612H62.4362L62.3612 77.6788L54.7644 87.807C54.3169 88.4037 53.6164 88.75 52.8791 88.75C51.9017 88.75 51.13 88.1666 50.7704 87.4467L50.7703 87.4466L40.3081 66.5228L40.2362 66.3791L40.0757 66.3847C39.689 66.3982 39.3024 66.4077 38.9145 66.4077C38.5266 66.4077 38.14 66.3982 37.7533 66.3847L37.5928 66.3791M77.3297 74.1667L37.5928 66.3791M15.3928 77.5788L15.4678 77.6788L23.0638 87.8069L15.3928 77.5788ZM15.3928 77.5788H15.2678M15.3928 77.5788H15.2678M15.2678 77.5788H2.60752C1.79057 77.5788 1.03173 77.1553 0.601891 76.4603L15.2678 77.5788ZM37.5928 66.3791L37.521 66.5228M37.5928 66.3791L37.521 66.5228M37.521 66.5228L27.0587 87.4466C27.0587 87.4466 27.0587 87.4466 27.0587 87.4466C26.6977 88.168 25.9266 88.75 24.9499 88.75C24.2121 88.75 23.5122 88.4038 23.0639 87.807L37.521 66.5228ZM24.3051 81.6028L24.5478 81.9263L24.7287 81.5645L32.462 66.0972L32.6078 65.8057L32.2884 65.7405C25.6098 64.3773 19.6577 60.9937 15.0975 56.2596L14.852 56.0048L14.6938 56.3212L6.60264 72.5022L6.42172 72.864H6.82625H16.5715C17.3137 72.864 18.0123 73.2133 18.4574 73.8069L18.4574 73.807L24.3051 81.6028ZM61.2568 72.864H61.5068V72.8633H71.0021H71.4066L71.2257 72.5015L63.1359 56.3199L62.9777 56.0034L62.7322 56.2583C58.172 60.9937 52.2192 64.3766 45.5399 65.7405L45.2205 65.8057L45.3663 66.0972L53.1003 81.5645L53.2812 81.9263L53.5239 81.6027L59.3708 73.8071C59.8166 73.2133 60.5153 72.864 61.2568 72.864ZM38.9145 4.96484C23.2745 4.96484 10.5505 17.6888 10.5505 33.3288C10.5505 48.9688 23.2745 61.6928 38.9145 61.6928C54.5545 61.6928 67.2785 48.9688 67.2785 33.3288C67.2785 17.6888 54.5545 4.96484 38.9145 4.96484Z" fill="#AD7D45" stroke="white" stroke-width="0.5"/>
<path d="M52.0331 37.4936L51.9683 37.5709L51.9753 37.6714L52.7575 48.9824C52.8134 49.7929 52.4487 50.575 51.7912 51.0526C51.1343 51.5296 50.278 51.6352 49.5247 51.332C49.5246 51.3319 49.5246 51.3319 49.5246 51.3319L39.0081 47.0929L38.9146 47.0552L38.8212 47.0929L28.3047 51.3312C28.0461 51.4353 27.0331 51.7756 26.0374 51.052C25.3806 50.5744 25.0158 49.7922 25.0717 48.9817L25.8553 37.6715L25.8623 37.5709L25.7975 37.4936L18.5158 28.8022L18.5157 28.8022C17.994 28.1798 17.83 27.3326 18.0805 26.5594C18.3317 25.7873 18.9627 25.1986 19.7509 25.0015L19.751 25.0015L30.7497 22.2501L30.8475 22.2257L30.9009 22.1402L36.9163 12.5288L36.9163 12.5287C37.3473 11.8399 38.1024 11.4219 38.9146 11.4219C39.7268 11.4219 40.4819 11.8399 40.9129 12.5287L40.9129 12.5288L46.9297 22.1403L46.9831 22.2257L47.0809 22.2501L58.0803 25.0015C58.8679 25.1986 59.499 25.7873 59.7501 26.5603L59.7501 26.5603C60.0012 27.3325 59.8367 28.1797 59.3149 28.8022L59.3148 28.8022L52.0331 37.4936ZM47.1995 36.9477L47.1995 36.9476C47.1571 36.3394 47.3523 35.7391 47.744 35.2712C47.744 35.2711 47.744 35.2711 47.7441 35.2711L53.0261 28.9679L53.2826 28.6617L52.8951 28.5648L44.9173 26.5691L44.9173 26.5691C44.3256 26.4212 43.8148 26.0498 43.4912 25.5328L43.4912 25.5328L39.1272 18.5614L38.9153 18.2228L38.7034 18.5614L34.34 25.5328C34.0164 26.0498 33.5057 26.4212 32.9139 26.5691L32.9139 26.5691L24.9361 28.5648L24.5487 28.6617L24.8052 28.9678L30.0865 35.2711C30.4783 35.739 30.6735 36.3401 30.6318 36.9485L30.0634 45.1523L30.0358 45.5507L30.4063 45.4014L38.0337 42.3268L38.034 42.3267C38.3624 42.1938 39.0326 42.0189 39.7962 42.3268L39.7962 42.3268L47.4236 45.4014L47.794 45.5507L47.7665 45.1523L47.1995 36.9477Z" fill="#AD7D45" stroke="white" stroke-width="0.5"/>
</svg>
