<svg width="89" height="89" viewBox="0 0 89 89" fill="none" xmlns="http://www.w3.org/2000/svg">
<g clip-path="url(#clip0)">
<path d="M20.4726 30.3053C19.7947 29.6274 18.6926 29.6274 18.0149 30.3053C17.3352 30.985 17.3352 32.0853 18.0149 32.7633C18.6928 33.4429 19.7949 33.4429 20.4726 32.7633C21.1521 32.0853 21.1521 30.985 20.4726 30.3053Z" fill="#AD7D45"/>
<path d="M44.0132 77.8263C44.7796 76.7882 45.1938 75.5375 45.1938 74.2225C45.1938 70.868 42.4647 68.1387 39.11 68.1387H9.56022C7.9344 68.1387 6.40662 68.7714 5.25814 69.9202C4.10913 71.0689 3.4764 72.5967 3.4764 74.2225C3.4764 75.5695 3.91722 76.8151 4.66104 77.8242C1.89317 79.2795 0 82.1825 0 85.5208V87.2591C0 88.2192 0.778404 88.9974 1.73828 88.9974H46.9319C47.8918 88.9974 48.6702 88.2192 48.6702 87.2591V85.5208C48.6702 82.184 46.779 79.2823 44.0132 77.8263ZM7.71625 72.3782C8.20835 71.8859 8.86334 71.6149 9.56022 71.6149H39.11C40.5478 71.6149 41.7173 72.7846 41.7173 74.2221C41.7173 74.9192 41.4461 75.574 40.9538 76.0663C40.4617 76.5586 39.8067 76.8296 39.1098 76.8296H9.56022C8.12248 76.8296 6.95296 75.6599 6.95296 74.2223C6.95296 73.5254 7.22396 72.8705 7.71625 72.3782ZM3.4764 85.5208C3.4764 82.6455 5.81578 80.3061 8.69108 80.3061H9.56022H39.11H39.9792C42.8545 80.3061 45.1938 82.6455 45.1938 85.5208H3.4764Z" fill="#AD7D45"/>
<path d="M87.3836 73.0293C86.7933 72.1145 86.0889 71.3055 85.2898 70.6248L77.1677 63.5407C77.1044 63.4455 77.031 63.3551 76.9471 63.2711C76.8059 63.1302 76.646 63.0201 76.476 62.9377L71.5641 58.6537L48.8291 38.8215C49.7598 37.8485 50.2722 36.5763 50.2722 35.2234C50.2722 33.8296 49.7297 32.5198 48.7436 31.5339C48.3135 31.1043 47.8247 30.7666 47.3024 30.5192L49.4057 28.4159C49.9936 28.5722 50.5977 28.6521 51.2022 28.6521C52.9824 28.652 54.7628 27.9744 56.1179 26.6192C57.4317 25.3056 58.1552 23.5595 58.1552 21.7025C58.1552 19.8455 57.4317 18.0994 56.1181 16.7857L41.3691 2.0371C40.0555 0.723474 38.3092 0 36.4517 0C34.595 0 32.8492 0.723474 31.5358 2.0371C29.7203 3.85256 29.1227 6.43026 29.7391 8.74948L8.75367 29.7348C8.17378 29.5806 7.57042 29.4992 6.95402 29.4992C5.09614 29.4992 3.35073 30.2222 2.03815 31.5346C-0.672874 34.2456 -0.672874 38.6568 2.03815 41.368L16.787 56.117C18.1427 57.4726 19.9232 58.1503 21.7037 58.1503C23.4844 58.1503 25.2649 57.4726 26.6206 56.117C28.4361 54.3014 29.0337 51.7239 28.4173 49.4047L30.5163 47.3055C30.7685 47.8322 31.1108 48.3182 31.536 48.7432C32.5209 49.7282 33.8303 50.2707 35.2237 50.2707C36.5753 50.2707 37.847 49.7591 38.8213 48.8295L63.0366 76.6514C63.1034 76.7557 63.1813 76.855 63.2724 76.946C63.3035 76.9772 63.3365 77.0055 63.3693 77.0336L70.5851 85.3242C70.7645 85.5359 70.9563 85.7442 71.1553 85.9432C73.1371 87.9244 75.7548 88.9995 78.503 88.9995C78.9875 88.9995 79.4765 88.9661 79.9661 88.8983C83.2392 88.4453 86.0679 86.4873 87.7265 83.5256C89.5436 80.2797 89.4083 76.1588 87.3836 73.0293ZM33.9943 4.49538C34.6511 3.83848 35.5241 3.47657 36.4518 3.47657C37.3808 3.47657 38.2543 3.83848 38.911 4.49538L53.66 19.2442C54.3169 19.9011 54.6786 20.7742 54.6786 21.7027C54.6786 22.6311 54.3169 23.5042 53.6598 24.1611C52.3048 25.5165 50.0996 25.5165 48.7446 24.1611L33.9951 9.4116C33.9948 9.41125 33.9946 9.41107 33.9943 9.41073C32.6389 8.05556 32.6389 5.85054 33.9943 4.49538ZM24.1623 53.6588C22.8068 55.0143 20.6008 55.0145 19.2453 53.6588L4.49644 38.9099C3.14075 37.5542 3.14075 35.3487 4.49644 33.9929C5.15212 33.337 6.02508 32.9758 6.95402 32.9758C7.88279 32.9758 8.75523 33.3368 9.41074 33.9922L24.1622 48.7436C25.5177 50.0986 25.5177 52.3038 24.1623 53.6588ZM31.4809 41.4247L26.6204 46.2853L11.8701 31.5349L31.5358 11.8688L46.286 26.6192L41.4167 31.4887C41.4009 31.5036 41.3854 31.5182 41.3688 31.5347L31.5408 41.3628C31.5205 41.3828 31.5009 41.4037 31.4809 41.4247ZM37.6876 45.051C37.6841 45.0544 37.6808 45.0577 37.6773 45.0612L36.4532 46.2853C36.1249 46.6135 35.6884 46.7943 35.2236 46.7943C34.7589 46.7943 34.3223 46.6135 33.9941 46.2851C33.6654 45.9566 33.4844 45.5196 33.4844 45.0546C33.4844 44.5995 33.6581 44.1714 33.9732 43.8484L43.8468 33.9748C44.5236 33.3167 45.6176 33.3248 46.2864 33.9929C46.6149 34.3214 46.7958 34.7584 46.7958 35.2234C46.7958 35.688 46.6154 36.1238 46.2862 36.4522L45.0692 37.6691C45.0609 37.6773 45.0525 37.6857 45.0444 37.694L37.6876 45.051ZM41.2872 46.3677L46.3675 41.2874L67.8774 60.0496L60.0284 67.8988L41.2872 46.3677ZM62.3161 70.5274L70.5033 62.3401L73.1293 64.6306L64.6039 73.1562L62.3161 70.5274ZM84.6934 81.8273C83.5715 83.8303 81.6749 85.1523 79.4897 85.4548C77.3095 85.7565 75.1674 85.0385 73.6131 83.4848C73.4794 83.3513 73.3514 83.212 73.2322 83.0709C73.2266 83.0643 73.2211 83.0577 73.2153 83.0512L66.8915 75.7849L75.7551 66.921L83.0125 73.2513C83.0179 73.2562 83.0234 73.2609 83.0292 73.2657C83.5724 73.7276 84.0544 74.2823 84.4634 74.9161C85.7779 76.9473 85.87 79.725 84.6934 81.8273Z" fill="#AD7D45"/>
<path d="M32.7637 18.015C32.0847 17.3362 30.9844 17.3362 30.3054 18.015L22.9302 25.3901C22.2514 26.0689 22.2514 27.1696 22.9302 27.8483C23.2697 28.1877 23.7146 28.3574 24.1594 28.3574C24.6042 28.3574 25.049 28.1876 25.3885 27.8483L32.7637 20.4731C33.4425 19.7944 33.4425 18.6939 32.7637 18.015Z" fill="#AD7D45"/>
</g>
<defs>
<clipPath id="clip0">
<rect width="89" height="89" fill="white"/>
</clipPath>
</defs>
</svg>
