<svg width="34" height="34" viewBox="0 0 34 34" fill="none" xmlns="http://www.w3.org/2000/svg">
<path d="M33.4352 17.849H32.5745L33.2545 16.149H33.4352C33.7482 16.149 34.0019 15.8952 34.0019 15.5823C34.0019 15.2694 33.7482 15.0156 33.4352 15.0156H32.8686C32.6368 15.0154 32.4283 15.1564 32.3421 15.3715L31.2088 18.2048C31.0923 18.4953 31.2335 18.8252 31.524 18.9416C31.5912 18.9686 31.6629 18.9824 31.7352 18.9823H33.4352C33.7482 18.9823 34.0019 18.7286 34.0019 18.4156C34.0019 18.1027 33.7482 17.849 33.4352 17.849Z" fill="#AD7D45"/>
<path d="M10.2003 22.3818C8.94842 22.3818 7.93359 23.3967 7.93359 24.6485C7.93359 25.9003 8.94842 26.9152 10.2003 26.9152C11.4521 26.9152 12.4669 25.9003 12.4669 24.6485C12.4669 23.3966 11.4521 22.3818 10.2003 22.3818ZM10.2003 25.7818C9.57431 25.7818 9.06693 25.2745 9.06693 24.6485C9.06693 24.0225 9.57431 23.5152 10.2003 23.5152C10.8262 23.5152 11.3336 24.0225 11.3336 24.6485C11.3336 25.2745 10.8262 25.7818 10.2003 25.7818Z" fill="#AD7D45"/>
<path d="M19.8333 24.6488C19.8457 23.9204 19.3885 23.2665 18.7 23.0282V13.8822C18.7 13.7319 18.6402 13.5878 18.534 13.4815L17.5315 12.4791L16.4265 5.29603C16.384 5.01964 16.1463 4.81564 15.8667 4.81549H5.66667V3.11549C5.66667 2.80255 5.41294 2.54883 5.1 2.54883H0.566667C0.253725 2.54883 0 2.80255 0 3.11549C0 3.42844 0.253725 3.68216 0.566667 3.68216H4.53333V20.1155H0.566667C0.253725 20.1155 0 20.3692 0 20.6822C0 20.9951 0.253725 21.2488 0.566667 21.2488H5.1C5.41294 21.2488 5.66667 20.9951 5.66667 20.6822V5.94883H15.3827L16.4424 12.835C16.4607 12.954 16.5165 13.0642 16.6016 13.1495L17.5667 14.1168V22.9488H14.4018C13.4786 20.6256 10.8469 19.4907 8.52359 20.414C6.59565 21.1802 5.43533 23.1589 5.70803 25.2155H0.566667C0.253725 25.2155 0 25.4692 0 25.7822C0 26.0951 0.253725 26.3488 0.566667 26.3488H6.00043C6.93664 28.6682 9.57582 29.7894 11.8952 28.8532C13.0353 28.393 13.9394 27.489 14.3996 26.3488H18.2467C19.1533 26.3153 19.8623 25.5555 19.8333 24.6488ZM10.2 28.0488C8.32221 28.0488 6.8 26.5266 6.8 24.6488C6.80184 22.7718 8.32299 21.2507 10.2 21.2488C12.0778 21.2488 13.6 22.771 13.6 24.6488C13.6 26.5265 12.0778 28.0488 10.2 28.0488ZM18.6858 24.7763C18.6366 24.9953 18.4656 25.1663 18.2467 25.2155H14.7333V24.0822H18.2467C18.5596 24.1526 18.7562 24.4633 18.6858 24.7763Z" fill="#AD7D45"/>
<path d="M33.4339 25.2157H32.8163C32.5052 23.3661 30.7536 22.1189 28.904 22.43C27.4766 22.67 26.3583 23.7883 26.1183 25.2157H24.9339V23.5157C24.9339 23.2027 24.6802 22.949 24.3673 22.949H23.2339V19.4997L28.9539 18.9824C29.1586 18.9639 29.3374 18.8359 29.4208 18.648L31.5379 13.8824H33.4339C33.7469 13.8824 34.0006 13.6286 34.0006 13.3157C34.0006 13.0027 33.7469 12.749 33.4339 12.749H31.1673C30.9433 12.749 30.7403 12.8809 30.6493 13.0856L28.5181 17.8813L22.6185 18.4157C22.3247 18.441 22.0995 18.6875 22.1006 18.9824V23.0091C21.4032 23.2468 20.943 23.9126 20.9673 24.649C20.9192 25.5342 21.5933 26.2928 22.478 26.349H26.1183C26.4294 28.1986 28.1809 29.4459 30.0305 29.1348C31.4579 28.8947 32.5762 27.7764 32.8163 26.349H33.4339C33.7469 26.349 34.0006 26.0953 34.0006 25.7824C34.0006 25.4694 33.7469 25.2157 33.4339 25.2157ZM23.8006 25.2157H22.4803C22.3018 25.2157 22.1029 24.9828 22.1029 24.649C22.1029 24.3153 22.3018 24.0824 22.4803 24.0824H23.8006V25.2157ZM29.4673 28.049C28.2154 28.049 27.2006 27.0342 27.2006 25.7824C27.2006 24.5305 28.2154 23.5157 29.4673 23.5157C30.7191 23.5157 31.7339 24.5305 31.7339 25.7824C31.7339 27.0342 30.7191 28.049 29.4673 28.049Z" fill="#AD7D45"/>
<path d="M14.7339 12.6864L14.1672 7.58638C14.1352 7.29801 13.8907 7.08027 13.6005 7.08204H7.93385C7.62091 7.08204 7.36719 7.33577 7.36719 7.64871V12.7487C7.36719 13.0617 7.62091 13.3154 7.93385 13.3154H14.1672C14.4801 13.3173 14.7354 13.0651 14.7373 12.7522C14.7374 12.7302 14.7363 12.7082 14.7339 12.6864ZM8.50052 12.182V8.21538H13.0934L13.5342 12.182H8.50052Z" fill="#AD7D45"/>
<path d="M15.8674 18.9824C15.5545 18.9824 15.3008 19.2361 15.3008 19.5491V21.2491C15.3008 21.562 15.5545 21.8158 15.8674 21.8158C16.1804 21.8158 16.4341 21.562 16.4341 21.2491V19.5491C16.4341 19.2361 16.1804 18.9824 15.8674 18.9824Z" fill="#AD7D45"/>
<path d="M25.3387 29.9147L23.637 28.2147C23.4164 27.9927 23.0577 27.9915 22.8356 28.2121C22.8158 28.2318 22.7974 28.2529 22.7808 28.2753L21.631 29.8053L20.3441 27.2287C20.2043 26.9487 19.8639 26.835 19.584 26.9749C19.5424 26.9957 19.5034 27.0215 19.468 27.0519L16.4341 29.65V28.0486C16.4341 27.7357 16.1804 27.482 15.8674 27.482C15.5545 27.482 15.3008 27.7357 15.3008 28.0486V30.882C15.3008 31.1949 15.5545 31.4486 15.8675 31.4486C16.0028 31.4486 16.1336 31.4001 16.2363 31.3121L19.6516 28.3847L21.0269 31.1353C21.1655 31.4159 21.5053 31.5311 21.7859 31.3926C21.8667 31.3528 21.9367 31.2943 21.9903 31.222L23.2981 29.4778L24.5374 30.7159C24.7626 30.9334 25.1213 30.9272 25.3387 30.702C25.5509 30.4824 25.5509 30.1342 25.3387 29.9147Z" fill="#AD7D45"/>
<path d="M27.2728 11.0537C27.1145 11.034 26.9552 11.0819 26.834 11.1857L23.4532 14.0836L22.057 10.8259C21.9336 10.5382 21.6004 10.4051 21.3128 10.5284C21.1502 10.5981 21.0295 10.7398 20.9865 10.9114L19.8532 15.4448C19.777 15.7476 19.9602 16.0551 20.2629 16.1321C20.5665 16.2081 20.8742 16.0238 20.9503 15.7202L21.6756 12.8188L22.7132 15.2391C22.8365 15.5267 23.1697 15.6599 23.4573 15.5365C23.5101 15.5138 23.5592 15.4833 23.6028 15.4459L26.4566 12.9996L26.0718 16.0789C26.0331 16.3893 26.2533 16.6724 26.5637 16.7113C26.5871 16.7145 26.6108 16.7159 26.6345 16.7158C26.9209 16.7166 27.1628 16.5036 27.1983 16.2194L27.765 11.6861C27.8037 11.3755 27.5833 11.0923 27.2728 11.0537Z" fill="#AD7D45"/>
</svg>
