<svg width="23" height="31" viewBox="0 0 23 31" fill="none" xmlns="http://www.w3.org/2000/svg">
<path d="M21.4355 16.7445C20.8056 15.1605 19.7087 13.8056 18.2905 12.8598L16.6723 11.786C19.4731 9.35554 19.7734 5.11472 17.3429 2.31391C14.9125 -0.486899 10.6716 -0.787181 7.87083 1.64329C5.07002 4.07377 4.76974 8.31459 7.20022 11.1154C7.6151 11.5936 8.09558 12.0106 8.62725 12.3542L7.92429 12.8526C5.14524 14.8291 2.84848 17.4077 1.2056 20.3961C1.01256 20.7474 0.911003 21.1415 0.910164 21.5423V21.9214C0.90855 22.548 1.15557 23.1497 1.59711 23.5943C2.03569 24.0357 2.63187 24.2843 3.25406 24.2854H5.5587V30.4835C5.5587 30.7687 5.78997 31 6.07521 31C6.36045 31 6.59171 30.7687 6.59171 30.4835V24.2854H11.247C12.3757 24.2891 13.2937 23.377 13.2974 22.2483C13.2978 22.1388 13.2893 22.0295 13.2722 21.9214L13.9994 20.9596C15.5834 18.8838 16.8184 16.5635 17.6557 14.0901C17.6981 13.9626 17.7332 13.8541 17.7647 13.7544C18.9878 14.5828 19.9339 15.7595 20.4805 17.1318C20.8614 18.0756 21.0561 19.084 21.0538 20.1017V30.4835C21.0538 30.7687 21.2851 31 21.5703 31C21.8556 31 22.0868 30.7687 22.0868 30.4835V20.1017C22.0888 18.951 21.8676 17.8109 21.4355 16.7445ZM3.25406 23.2524C2.90833 23.2515 2.57712 23.1131 2.33365 22.8676C2.08308 22.6165 1.94259 22.2761 1.94317 21.9214V21.5423C1.94311 21.3155 2.00018 21.0925 2.10897 20.8935C3.07419 19.1396 4.27809 17.5281 5.68628 16.105L6.16508 20.1534H4.52569C4.24045 20.1534 4.00919 20.3846 4.00919 20.6699C4.00919 20.9551 4.24045 21.1864 4.52569 21.1864H6.28181L6.52456 23.2524H3.25406ZM14.5975 1.54374L11.1426 2.9977L9.13446 1.99361C10.7558 0.910761 12.8209 0.740702 14.5975 1.54374ZM8.25795 2.71052L9.88856 3.52608L6.94965 4.76156C7.23295 3.99158 7.67921 3.29197 8.25795 2.71052ZM6.64336 6.01356L15.6987 2.20073C16.0082 2.43509 16.2931 2.70038 16.5489 2.99253L6.77249 8.11367C6.59113 7.42904 6.54723 6.71524 6.64336 6.01356ZM7.38132 9.59849C7.28609 9.43682 7.19893 9.27051 7.12016 9.10013L17.1605 3.83798C18.7512 6.5384 17.8516 10.0171 15.1512 11.6078C12.4507 13.1985 8.97202 12.299 7.38132 9.59849ZM7.56945 23.2524L6.62373 15.2115C7.00595 14.8685 7.40365 14.5452 7.80911 14.2301L10.0642 23.2524H7.56945ZM11.9757 22.9513C11.7834 23.1447 11.5217 23.2531 11.249 23.2524H11.1292L10.6127 21.1864H11.2361C11.5198 21.1883 11.7905 21.3058 11.9856 21.5118C12.3722 21.9152 12.3678 22.5531 11.9757 22.9513ZM16.6811 13.7616C15.8782 16.1291 14.6949 18.3499 13.1777 20.3367L12.7805 20.862C12.7567 20.8357 12.7397 20.8052 12.7149 20.7794C12.3262 20.3803 11.7932 20.1547 11.2361 20.1534H10.3544L8.70938 13.5633L9.64528 12.9001C11.645 13.756 13.9363 13.5836 15.7855 12.4384L16.8701 13.1553C16.8345 13.2844 16.7772 13.4745 16.6811 13.7616Z" fill="#AD7D45"/>
</svg>
