<svg width="144" height="47" viewBox="0 0 144 47" fill="none" xmlns="http://www.w3.org/2000/svg">
<path d="M18.1118 0.367188H19.3834C23.7982 0.461772 28.141 2.21159 31.2601 5.30924C30.1084 6.46791 28.9327 7.57928 27.8051 8.73794C26.0536 7.17729 23.9421 5.97134 21.6388 5.54571C18.2317 4.83632 14.5608 5.47477 11.7056 7.39011C8.58644 9.40004 6.47503 12.8051 6.01916 16.4466C5.5153 20.0408 6.54701 23.8242 8.92234 26.6145C11.2017 29.3338 14.6807 31.0363 18.2797 31.1545C21.6388 31.3437 25.1418 30.3269 27.5891 28.0096C29.5086 26.378 30.3963 23.8952 30.6843 21.4832C26.7014 21.4832 22.7185 21.5069 18.7356 21.4832V16.6121H35.5069C36.3707 21.8379 35.123 27.7258 31.0921 31.4619C28.4049 34.1103 24.6859 35.671 20.895 35.9784C17.224 36.3331 13.4331 35.6473 10.17 33.8975C6.25909 31.8403 3.13996 28.3643 1.60439 24.2735C0.164792 20.5138 0.140799 16.2574 1.48442 12.474C2.70808 9.0217 5.05942 5.97134 8.08258 3.84318C10.9858 1.73867 14.5128 0.580003 18.1118 0.367188Z" fill="white"/>
<path d="M114.324 1.59766H119.459V35.3644C117.755 35.3644 116.028 35.3881 114.324 35.3408C114.348 24.1088 114.324 12.8532 114.324 1.59766Z" fill="white"/>
<path d="M46.9289 13.3035C50.096 12.7124 53.5271 13.3744 56.1423 15.2425C58.5177 16.8977 60.1732 19.4988 60.6771 22.3364C61.3249 25.6232 60.5091 29.2174 58.3497 31.8185C56.0224 34.727 52.2074 36.2876 48.4885 36.0512C45.0814 35.862 41.7703 34.1831 39.7549 31.4402C37.4755 28.4134 36.9237 24.2517 38.1713 20.7048C39.419 16.8977 42.946 13.9893 46.9289 13.3035ZM47.6487 17.7963C46.3531 18.1273 45.1534 18.8604 44.2896 19.9008C41.9623 22.6438 42.1062 27.1129 44.6735 29.6667C46.1371 31.1328 48.3445 31.8185 50.3839 31.4165C52.2794 31.0855 53.9349 29.8322 54.8467 28.177C56.4302 25.3631 55.9744 21.4851 53.551 19.286C51.9915 17.8672 49.7121 17.2761 47.6487 17.7963Z" fill="white"/>
<path d="M72.3588 13.3013C75.9818 12.6156 79.9407 13.6087 82.652 16.1152C87.0667 20.0169 87.5466 27.3235 83.7797 31.8163C81.5003 34.6539 77.8053 36.2145 74.1583 36.049C70.6793 35.9544 67.2483 34.2519 65.1849 31.438C62.8575 28.3403 62.3536 24.084 63.6733 20.4661C64.9929 16.7773 68.4479 13.9634 72.3588 13.3013ZM73.0786 17.7941C71.783 18.1252 70.5833 18.8582 69.7196 19.875C67.4162 22.5707 67.5122 26.9689 69.9835 29.5463C71.4471 31.0833 73.7265 31.84 75.8379 31.4143C77.7093 31.0596 79.3889 29.83 80.3006 28.1748C81.8602 25.3373 81.4043 21.4593 78.957 19.2602C77.3974 17.8414 75.1181 17.2739 73.0786 17.7941Z" fill="white"/>
<path d="M93.9323 14.6736C96.6916 12.971 100.363 12.4981 103.338 13.9642C104.273 14.3662 105.041 15.0519 105.785 15.7376C105.809 15.0992 105.785 14.4371 105.809 13.775C107.417 13.7987 109.024 13.775 110.656 13.7986V34.6546C110.632 37.7996 109.816 41.1337 107.513 43.4274C104.993 45.9575 101.13 46.7378 97.6513 46.2176C93.9323 45.6738 90.6932 43.0017 89.2536 39.6203C90.6932 38.9346 92.2048 38.3907 93.6924 37.7523C94.5322 39.6913 96.2357 41.3465 98.3711 41.7248C100.506 42.1032 102.978 41.583 104.369 39.8331C105.857 38.036 105.857 35.5768 105.785 33.3777C104.681 34.4418 103.41 35.3877 101.874 35.7423C98.539 36.6646 94.8681 35.5295 92.3008 33.3068C89.7095 31.084 88.1739 27.6553 88.3179 24.2503C88.3899 20.3959 90.5973 16.6835 93.9323 14.6736ZM98.8989 17.7003C97.4353 17.9367 96.0677 18.7407 95.132 19.8521C92.8766 22.5005 92.8766 26.7331 95.156 29.3342C96.4516 30.8712 98.539 31.7225 100.554 31.5097C102.45 31.3205 104.201 30.1382 105.137 28.5066C106.721 25.74 106.457 21.9802 104.321 19.5683C103.002 18.0786 100.89 17.3456 98.8989 17.7003Z" fill="white"/>
<path d="M125.626 15.8787C128.505 13.2303 132.944 12.3317 136.639 13.7268C140.142 15.0274 142.374 18.3142 143.501 21.6956C138.295 23.8238 133.112 25.9283 127.906 28.0565C128.625 29.4043 129.729 30.6339 131.217 31.1305C133.304 31.8635 135.799 31.6034 137.551 30.2319C138.247 29.7117 138.799 29.026 139.326 28.3639C140.646 29.2388 141.966 30.09 143.285 30.9649C141.414 33.7315 138.271 35.6705 134.888 35.9779C131.145 36.4272 127.162 35.0084 124.738 32.1236C120.756 27.5835 121.139 19.9694 125.626 15.8787ZM128.193 20.2532C127.378 21.4119 127.042 22.8306 127.066 24.2258C130.545 22.807 134.024 21.3882 137.503 19.9458C136.927 18.6216 135.535 17.8176 134.12 17.6048C131.84 17.2028 129.465 18.4088 128.193 20.2532Z" fill="white"/>
</svg>
