<svg width="31" height="31" viewBox="0 0 31 31" fill="none" xmlns="http://www.w3.org/2000/svg">
<circle cx="15.5" cy="15.5" r="15.5" fill="#55ACEE"/>
<path d="M22.5585 11.9357C22.5655 12.0894 22.5689 12.2438 22.5689 12.399C22.5689 17.1359 18.9059 22.5982 12.2072 22.5984C10.1505 22.5984 8.23668 22.005 6.625 20.9882C6.90995 21.0213 7.19999 21.0377 7.49366 21.0377C9.2 21.0377 10.7703 20.4648 12.0169 19.5033C10.4226 19.4742 9.07847 18.4378 8.6146 17.0134C8.83661 17.0553 9.06491 17.0782 9.29902 17.0782C9.63143 17.0782 9.95343 17.0341 10.2594 16.9519C8.59305 16.6235 7.33775 15.1739 7.33775 13.438C7.33775 13.4218 7.33775 13.4073 7.33823 13.3922C7.82898 13.6608 8.39017 13.8224 8.98768 13.8405C8.00983 13.1983 7.36704 12.1004 7.36704 10.8566C7.36704 10.1998 7.54741 9.58451 7.86021 9.05475C9.65613 11.2239 12.3401 12.6504 15.3668 12.8003C15.3044 12.5377 15.2722 12.2641 15.2722 11.9829C15.2722 10.0039 16.9032 8.39844 18.9144 8.39844C19.962 8.39844 20.9081 8.83431 21.5727 9.53113C22.4023 9.37003 23.1814 9.07167 23.8852 8.66106C23.6129 9.49777 23.0357 10.1998 22.2837 10.6438C23.0204 10.5571 23.7225 10.3647 24.375 10.0792C23.8876 10.7982 23.2696 11.4298 22.5585 11.9357Z" fill="white"/>
</svg>
