<svg width="16" height="20" viewBox="0 0 16 20" fill="none" xmlns="http://www.w3.org/2000/svg">
<path d="M9.55873 2.55002H10.51V6.42619C10.51 6.64991 10.51 6.76592 10.5215 6.79714C10.5424 6.94495 10.6174 7.02057 10.7452 7.02057C10.936 7.02057 11.1362 6.87276 11.3479 6.574V2.55002H12.3017V7.81459H11.3479V7.24056C10.968 7.67595 10.606 7.88706 10.2579 7.88706C9.95087 7.88706 9.7389 7.76246 9.64323 7.49607C9.59053 7.33652 9.55873 7.08473 9.55873 6.71321V2.55002ZM5.95583 4.26669C5.95583 3.70382 6.0515 3.29249 6.2543 3.02638C6.51812 2.66632 6.88964 2.48643 7.36514 2.48643C7.84293 2.48643 8.21416 2.66632 8.47797 3.02638C8.67791 3.2922 8.77359 3.70382 8.77359 4.26669V6.11025C8.77359 6.66996 8.67791 7.08502 8.47797 7.34826C8.21416 7.70746 7.84293 7.88706 7.36514 7.88706C6.88964 7.88706 6.51812 7.70746 6.2543 7.34826C6.0515 7.08502 5.95583 6.66967 5.95583 6.11025V4.26669ZM3.40475 0.75L4.15581 3.52422L4.87736 0.75H5.94723L4.67456 4.95358V7.81488H3.617V4.95358C3.52104 4.44657 3.30936 3.70382 2.96992 2.71845C2.74707 2.06278 2.51476 1.4051 2.29191 0.75H3.40475ZM15.5383 17.5027C15.3469 18.3331 14.6678 18.9461 13.85 19.0375C11.9127 19.2538 9.95317 19.2549 8.00076 19.2538C6.04921 19.2549 4.08849 19.2538 2.15184 19.0375C1.33404 18.9461 0.654588 18.3334 0.463816 17.5027C0.191406 16.32 0.191406 15.0284 0.191406 13.8105C0.191406 12.5925 0.194843 11.3012 0.466966 10.1182C0.658025 9.28749 1.3369 8.6745 2.1547 8.58341C4.09164 8.36715 6.05207 8.366 8.00419 8.36715C9.95574 8.366 11.9162 8.36715 13.8531 8.58341C14.6709 8.67479 15.3504 9.28749 15.542 10.1182C15.8135 11.3012 15.8118 12.5925 15.8118 13.8105C15.8118 15.0284 15.8107 16.32 15.5383 17.5027Z" fill="black"/>
<path d="M1.35547 10.9722H2.46544V16.9798H3.51555V10.9722H4.64615V9.98828H1.35547V10.9722Z" fill="white"/>
<path d="M10.2339 11.707C9.88675 11.707 9.56278 11.8966 9.25829 12.2718V9.98828H8.31445V16.9801H9.25829V16.4754C9.57424 16.8653 9.89792 17.052 10.2339 17.052C10.6095 17.052 10.8621 16.8544 10.9881 16.4665C11.0514 16.2457 11.0838 15.8988 11.0838 15.4167V13.3423C11.0838 12.849 11.0514 12.5047 10.9881 12.2953C10.8624 11.9046 10.6092 11.707 10.2339 11.707ZM10.1394 15.4906C10.1394 15.9615 10.0013 16.1935 9.72863 16.1935C9.57367 16.1935 9.41583 16.1194 9.258 15.9612V12.7863C9.41583 12.6302 9.57367 12.5563 9.72863 12.5563C10.001 12.5563 10.1394 12.7974 10.1394 13.2672V15.4906Z" fill="white"/>
<path d="M6.55177 15.7508C6.34237 16.0467 6.14444 16.1925 5.95482 16.1925C5.82878 16.1925 5.75688 16.1183 5.73397 15.9717C5.72537 15.9413 5.72537 15.8262 5.72537 15.605V11.7695H4.78125V15.8883C4.78125 16.2564 4.81304 16.505 4.8646 16.6632C4.95942 16.9273 5.1691 17.051 5.47273 17.051C5.82019 17.051 6.17652 16.8413 6.55177 16.4111V16.9794H7.49646V11.7695H6.55177V15.7508Z" fill="white"/>
<path d="M7.36365 6.95634C7.67101 6.95634 7.81853 6.71257 7.81853 6.22562V4.01111C7.81853 3.52387 7.67101 3.28125 7.36365 3.28125C7.05601 3.28125 6.9082 3.52416 6.9082 4.01111V6.22562C6.9082 6.71286 7.05601 6.95634 7.36365 6.95634Z" fill="white"/>
<path d="M13.2425 11.707C12.7596 11.707 12.3846 11.8843 12.1119 12.241C11.9117 12.5045 11.8203 12.9118 11.8203 13.4684V15.2933C11.8203 15.847 11.9226 16.2572 12.1237 16.5182C12.3961 16.8739 12.7722 17.0518 13.266 17.0518C13.759 17.0518 14.146 16.8653 14.4072 16.4869C14.5218 16.3197 14.5963 16.1303 14.6278 15.9212C14.6366 15.8267 14.6478 15.6173 14.6478 15.3128V15.1756H13.6851C13.6851 15.5537 13.6728 15.7637 13.6644 15.8149C13.6106 16.0673 13.4748 16.1933 13.2425 16.1933C12.9183 16.1933 12.7596 15.9527 12.7596 15.4709V14.5468H14.6478V13.4678C14.6478 12.9112 14.5536 12.5039 14.3556 12.2404C14.0918 11.8846 13.7163 11.707 13.2425 11.707ZM13.7043 13.7614H12.7601V13.2793C12.7601 12.7975 12.9185 12.5566 13.2339 12.5566C13.5461 12.5566 13.7043 12.7978 13.7043 13.2793V13.7614Z" fill="white"/>
</svg>
